G04 #@! TF.GenerationSoftware,KiCad,Pcbnew,(5.1.4)-1*
G04 #@! TF.CreationDate,2022-03-06T23:24:09-05:00*
G04 #@! TF.ProjectId,wifi_remote_leds,77696669-5f72-4656-9d6f-74655f6c6564,rev?*
G04 #@! TF.SameCoordinates,Original*
G04 #@! TF.FileFunction,Copper,L2,Bot*
G04 #@! TF.FilePolarity,Positive*
%FSLAX46Y46*%
G04 Gerber Fmt 4.6, Leading zero omitted, Abs format (unit mm)*
G04 Created by KiCad (PCBNEW (5.1.4)-1) date 2022-03-06 23:24:09*
%MOMM*%
%LPD*%
G04 APERTURE LIST*
%ADD10O,2.080000X3.600000*%
%ADD11C,0.100000*%
%ADD12C,2.080000*%
%ADD13C,1.524000*%
%ADD14O,2.000000X1.700000*%
%ADD15C,1.700000*%
%ADD16O,1.700000X2.000000*%
%ADD17O,1.600000X1.600000*%
%ADD18C,1.600000*%
%ADD19O,1.700000X1.950000*%
%ADD20C,5.400000*%
%ADD21R,1.600000X1.600000*%
%ADD22C,0.500000*%
%ADD23C,0.254000*%
G04 APERTURE END LIST*
D10*
X110080000Y-109000000D03*
D11*
G36*
X105814505Y-107201204D02*
G01*
X105838773Y-107204804D01*
X105862572Y-107210765D01*
X105885671Y-107219030D01*
X105907850Y-107229520D01*
X105928893Y-107242132D01*
X105948599Y-107256747D01*
X105966777Y-107273223D01*
X105983253Y-107291401D01*
X105997868Y-107311107D01*
X106010480Y-107332150D01*
X106020970Y-107354329D01*
X106029235Y-107377428D01*
X106035196Y-107401227D01*
X106038796Y-107425495D01*
X106040000Y-107449999D01*
X106040000Y-110550001D01*
X106038796Y-110574505D01*
X106035196Y-110598773D01*
X106029235Y-110622572D01*
X106020970Y-110645671D01*
X106010480Y-110667850D01*
X105997868Y-110688893D01*
X105983253Y-110708599D01*
X105966777Y-110726777D01*
X105948599Y-110743253D01*
X105928893Y-110757868D01*
X105907850Y-110770480D01*
X105885671Y-110780970D01*
X105862572Y-110789235D01*
X105838773Y-110795196D01*
X105814505Y-110798796D01*
X105790001Y-110800000D01*
X104209999Y-110800000D01*
X104185495Y-110798796D01*
X104161227Y-110795196D01*
X104137428Y-110789235D01*
X104114329Y-110780970D01*
X104092150Y-110770480D01*
X104071107Y-110757868D01*
X104051401Y-110743253D01*
X104033223Y-110726777D01*
X104016747Y-110708599D01*
X104002132Y-110688893D01*
X103989520Y-110667850D01*
X103979030Y-110645671D01*
X103970765Y-110622572D01*
X103964804Y-110598773D01*
X103961204Y-110574505D01*
X103960000Y-110550001D01*
X103960000Y-107449999D01*
X103961204Y-107425495D01*
X103964804Y-107401227D01*
X103970765Y-107377428D01*
X103979030Y-107354329D01*
X103989520Y-107332150D01*
X104002132Y-107311107D01*
X104016747Y-107291401D01*
X104033223Y-107273223D01*
X104051401Y-107256747D01*
X104071107Y-107242132D01*
X104092150Y-107229520D01*
X104114329Y-107219030D01*
X104137428Y-107210765D01*
X104161227Y-107204804D01*
X104185495Y-107201204D01*
X104209999Y-107200000D01*
X105790001Y-107200000D01*
X105814505Y-107201204D01*
X105814505Y-107201204D01*
G37*
D12*
X105000000Y-109000000D03*
D13*
X113970000Y-60220000D03*
X113970000Y-62760000D03*
X113970000Y-65300000D03*
X113970000Y-67840000D03*
X113970000Y-70380000D03*
X113970000Y-72920000D03*
X113970000Y-75460000D03*
X113970000Y-78000000D03*
X113970000Y-80540000D03*
X113970000Y-83080000D03*
X113970000Y-85620000D03*
X113970000Y-88160000D03*
X113970000Y-90700000D03*
X113970000Y-93240000D03*
X113970000Y-95780000D03*
X86030000Y-95780000D03*
X86030000Y-93240000D03*
X86030000Y-90700000D03*
X86030000Y-88160000D03*
X86030000Y-85620000D03*
X86030000Y-83080000D03*
X86030000Y-80540000D03*
X86030000Y-78000000D03*
X86030000Y-75460000D03*
X86030000Y-72920000D03*
X86030000Y-70380000D03*
X86030000Y-67840000D03*
X86030000Y-65300000D03*
X86030000Y-62760000D03*
X86030000Y-60220000D03*
D14*
X110000000Y-46500000D03*
D11*
G36*
X110774504Y-48151204D02*
G01*
X110798773Y-48154804D01*
X110822571Y-48160765D01*
X110845671Y-48169030D01*
X110867849Y-48179520D01*
X110888893Y-48192133D01*
X110908598Y-48206747D01*
X110926777Y-48223223D01*
X110943253Y-48241402D01*
X110957867Y-48261107D01*
X110970480Y-48282151D01*
X110980970Y-48304329D01*
X110989235Y-48327429D01*
X110995196Y-48351227D01*
X110998796Y-48375496D01*
X111000000Y-48400000D01*
X111000000Y-49600000D01*
X110998796Y-49624504D01*
X110995196Y-49648773D01*
X110989235Y-49672571D01*
X110980970Y-49695671D01*
X110970480Y-49717849D01*
X110957867Y-49738893D01*
X110943253Y-49758598D01*
X110926777Y-49776777D01*
X110908598Y-49793253D01*
X110888893Y-49807867D01*
X110867849Y-49820480D01*
X110845671Y-49830970D01*
X110822571Y-49839235D01*
X110798773Y-49845196D01*
X110774504Y-49848796D01*
X110750000Y-49850000D01*
X109250000Y-49850000D01*
X109225496Y-49848796D01*
X109201227Y-49845196D01*
X109177429Y-49839235D01*
X109154329Y-49830970D01*
X109132151Y-49820480D01*
X109111107Y-49807867D01*
X109091402Y-49793253D01*
X109073223Y-49776777D01*
X109056747Y-49758598D01*
X109042133Y-49738893D01*
X109029520Y-49717849D01*
X109019030Y-49695671D01*
X109010765Y-49672571D01*
X109004804Y-49648773D01*
X109001204Y-49624504D01*
X109000000Y-49600000D01*
X109000000Y-48400000D01*
X109001204Y-48375496D01*
X109004804Y-48351227D01*
X109010765Y-48327429D01*
X109019030Y-48304329D01*
X109029520Y-48282151D01*
X109042133Y-48261107D01*
X109056747Y-48241402D01*
X109073223Y-48223223D01*
X109091402Y-48206747D01*
X109111107Y-48192133D01*
X109132151Y-48179520D01*
X109154329Y-48169030D01*
X109177429Y-48160765D01*
X109201227Y-48154804D01*
X109225496Y-48151204D01*
X109250000Y-48150000D01*
X110750000Y-48150000D01*
X110774504Y-48151204D01*
X110774504Y-48151204D01*
G37*
D15*
X110000000Y-49000000D03*
D16*
X88500000Y-110000000D03*
D11*
G36*
X86624504Y-109001204D02*
G01*
X86648773Y-109004804D01*
X86672571Y-109010765D01*
X86695671Y-109019030D01*
X86717849Y-109029520D01*
X86738893Y-109042133D01*
X86758598Y-109056747D01*
X86776777Y-109073223D01*
X86793253Y-109091402D01*
X86807867Y-109111107D01*
X86820480Y-109132151D01*
X86830970Y-109154329D01*
X86839235Y-109177429D01*
X86845196Y-109201227D01*
X86848796Y-109225496D01*
X86850000Y-109250000D01*
X86850000Y-110750000D01*
X86848796Y-110774504D01*
X86845196Y-110798773D01*
X86839235Y-110822571D01*
X86830970Y-110845671D01*
X86820480Y-110867849D01*
X86807867Y-110888893D01*
X86793253Y-110908598D01*
X86776777Y-110926777D01*
X86758598Y-110943253D01*
X86738893Y-110957867D01*
X86717849Y-110970480D01*
X86695671Y-110980970D01*
X86672571Y-110989235D01*
X86648773Y-110995196D01*
X86624504Y-110998796D01*
X86600000Y-111000000D01*
X85400000Y-111000000D01*
X85375496Y-110998796D01*
X85351227Y-110995196D01*
X85327429Y-110989235D01*
X85304329Y-110980970D01*
X85282151Y-110970480D01*
X85261107Y-110957867D01*
X85241402Y-110943253D01*
X85223223Y-110926777D01*
X85206747Y-110908598D01*
X85192133Y-110888893D01*
X85179520Y-110867849D01*
X85169030Y-110845671D01*
X85160765Y-110822571D01*
X85154804Y-110798773D01*
X85151204Y-110774504D01*
X85150000Y-110750000D01*
X85150000Y-109250000D01*
X85151204Y-109225496D01*
X85154804Y-109201227D01*
X85160765Y-109177429D01*
X85169030Y-109154329D01*
X85179520Y-109132151D01*
X85192133Y-109111107D01*
X85206747Y-109091402D01*
X85223223Y-109073223D01*
X85241402Y-109056747D01*
X85261107Y-109042133D01*
X85282151Y-109029520D01*
X85304329Y-109019030D01*
X85327429Y-109010765D01*
X85351227Y-109004804D01*
X85375496Y-109001204D01*
X85400000Y-109000000D01*
X86600000Y-109000000D01*
X86624504Y-109001204D01*
X86624504Y-109001204D01*
G37*
D15*
X86000000Y-110000000D03*
D17*
X117160000Y-41000000D03*
D18*
X107000000Y-41000000D03*
D17*
X119000000Y-73160000D03*
D18*
X119000000Y-63000000D03*
D17*
X80000000Y-85840000D03*
D18*
X80000000Y-96000000D03*
D19*
X107000000Y-35000000D03*
X109500000Y-35000000D03*
D11*
G36*
X112624504Y-34026204D02*
G01*
X112648773Y-34029804D01*
X112672571Y-34035765D01*
X112695671Y-34044030D01*
X112717849Y-34054520D01*
X112738893Y-34067133D01*
X112758598Y-34081747D01*
X112776777Y-34098223D01*
X112793253Y-34116402D01*
X112807867Y-34136107D01*
X112820480Y-34157151D01*
X112830970Y-34179329D01*
X112839235Y-34202429D01*
X112845196Y-34226227D01*
X112848796Y-34250496D01*
X112850000Y-34275000D01*
X112850000Y-35725000D01*
X112848796Y-35749504D01*
X112845196Y-35773773D01*
X112839235Y-35797571D01*
X112830970Y-35820671D01*
X112820480Y-35842849D01*
X112807867Y-35863893D01*
X112793253Y-35883598D01*
X112776777Y-35901777D01*
X112758598Y-35918253D01*
X112738893Y-35932867D01*
X112717849Y-35945480D01*
X112695671Y-35955970D01*
X112672571Y-35964235D01*
X112648773Y-35970196D01*
X112624504Y-35973796D01*
X112600000Y-35975000D01*
X111400000Y-35975000D01*
X111375496Y-35973796D01*
X111351227Y-35970196D01*
X111327429Y-35964235D01*
X111304329Y-35955970D01*
X111282151Y-35945480D01*
X111261107Y-35932867D01*
X111241402Y-35918253D01*
X111223223Y-35901777D01*
X111206747Y-35883598D01*
X111192133Y-35863893D01*
X111179520Y-35842849D01*
X111169030Y-35820671D01*
X111160765Y-35797571D01*
X111154804Y-35773773D01*
X111151204Y-35749504D01*
X111150000Y-35725000D01*
X111150000Y-34275000D01*
X111151204Y-34250496D01*
X111154804Y-34226227D01*
X111160765Y-34202429D01*
X111169030Y-34179329D01*
X111179520Y-34157151D01*
X111192133Y-34136107D01*
X111206747Y-34116402D01*
X111223223Y-34098223D01*
X111241402Y-34081747D01*
X111261107Y-34067133D01*
X111282151Y-34054520D01*
X111304329Y-34044030D01*
X111327429Y-34035765D01*
X111351227Y-34029804D01*
X111375496Y-34026204D01*
X111400000Y-34025000D01*
X112600000Y-34025000D01*
X112624504Y-34026204D01*
X112624504Y-34026204D01*
G37*
D15*
X112000000Y-35000000D03*
D19*
X89000000Y-35000000D03*
X91500000Y-35000000D03*
D11*
G36*
X94624504Y-34026204D02*
G01*
X94648773Y-34029804D01*
X94672571Y-34035765D01*
X94695671Y-34044030D01*
X94717849Y-34054520D01*
X94738893Y-34067133D01*
X94758598Y-34081747D01*
X94776777Y-34098223D01*
X94793253Y-34116402D01*
X94807867Y-34136107D01*
X94820480Y-34157151D01*
X94830970Y-34179329D01*
X94839235Y-34202429D01*
X94845196Y-34226227D01*
X94848796Y-34250496D01*
X94850000Y-34275000D01*
X94850000Y-35725000D01*
X94848796Y-35749504D01*
X94845196Y-35773773D01*
X94839235Y-35797571D01*
X94830970Y-35820671D01*
X94820480Y-35842849D01*
X94807867Y-35863893D01*
X94793253Y-35883598D01*
X94776777Y-35901777D01*
X94758598Y-35918253D01*
X94738893Y-35932867D01*
X94717849Y-35945480D01*
X94695671Y-35955970D01*
X94672571Y-35964235D01*
X94648773Y-35970196D01*
X94624504Y-35973796D01*
X94600000Y-35975000D01*
X93400000Y-35975000D01*
X93375496Y-35973796D01*
X93351227Y-35970196D01*
X93327429Y-35964235D01*
X93304329Y-35955970D01*
X93282151Y-35945480D01*
X93261107Y-35932867D01*
X93241402Y-35918253D01*
X93223223Y-35901777D01*
X93206747Y-35883598D01*
X93192133Y-35863893D01*
X93179520Y-35842849D01*
X93169030Y-35820671D01*
X93160765Y-35797571D01*
X93154804Y-35773773D01*
X93151204Y-35749504D01*
X93150000Y-35725000D01*
X93150000Y-34275000D01*
X93151204Y-34250496D01*
X93154804Y-34226227D01*
X93160765Y-34202429D01*
X93169030Y-34179329D01*
X93179520Y-34157151D01*
X93192133Y-34136107D01*
X93206747Y-34116402D01*
X93223223Y-34098223D01*
X93241402Y-34081747D01*
X93261107Y-34067133D01*
X93282151Y-34054520D01*
X93304329Y-34044030D01*
X93327429Y-34035765D01*
X93351227Y-34029804D01*
X93375496Y-34026204D01*
X93400000Y-34025000D01*
X94600000Y-34025000D01*
X94624504Y-34026204D01*
X94624504Y-34026204D01*
G37*
D15*
X94000000Y-35000000D03*
D20*
X120000000Y-116000000D03*
X120000000Y-28000000D03*
X79000000Y-116000000D03*
X79000000Y-28000000D03*
D18*
X122000000Y-105000000D03*
D21*
X117000000Y-105000000D03*
D22*
X84087999Y-91912001D02*
X80799999Y-95200001D01*
X113970000Y-80540000D02*
X102597999Y-91912001D01*
X102597999Y-91912001D02*
X84087999Y-91912001D01*
X80799999Y-95200001D02*
X80000000Y-96000000D01*
D23*
G36*
X117409536Y-25874061D02*
G01*
X117044561Y-26420285D01*
X116793162Y-27027216D01*
X116665000Y-27671531D01*
X116665000Y-28328469D01*
X116793162Y-28972784D01*
X117044561Y-29579715D01*
X117409536Y-30125939D01*
X117874061Y-30590464D01*
X118420285Y-30955439D01*
X119027216Y-31206838D01*
X119671531Y-31335000D01*
X120328469Y-31335000D01*
X120972784Y-31206838D01*
X121579715Y-30955439D01*
X122125939Y-30590464D01*
X122590464Y-30125939D01*
X122955439Y-29579715D01*
X123206838Y-28972784D01*
X123335000Y-28328469D01*
X123335000Y-27671531D01*
X123206838Y-27027216D01*
X122955439Y-26420285D01*
X122590464Y-25874061D01*
X122376403Y-25660000D01*
X123340001Y-25660000D01*
X123340000Y-104485485D01*
X123303603Y-104383708D01*
X123236671Y-104258486D01*
X122992702Y-104186903D01*
X122179605Y-105000000D01*
X122992702Y-105813097D01*
X123236671Y-105741514D01*
X123340000Y-105523138D01*
X123340000Y-119340000D01*
X76660000Y-119340000D01*
X76660000Y-118376403D01*
X76874061Y-118590464D01*
X77420285Y-118955439D01*
X78027216Y-119206838D01*
X78671531Y-119335000D01*
X79328469Y-119335000D01*
X79972784Y-119206838D01*
X80579715Y-118955439D01*
X81125939Y-118590464D01*
X81590464Y-118125939D01*
X81955439Y-117579715D01*
X82206838Y-116972784D01*
X82335000Y-116328469D01*
X82335000Y-115671531D01*
X116665000Y-115671531D01*
X116665000Y-116328469D01*
X116793162Y-116972784D01*
X117044561Y-117579715D01*
X117409536Y-118125939D01*
X117874061Y-118590464D01*
X118420285Y-118955439D01*
X119027216Y-119206838D01*
X119671531Y-119335000D01*
X120328469Y-119335000D01*
X120972784Y-119206838D01*
X121579715Y-118955439D01*
X122125939Y-118590464D01*
X122590464Y-118125939D01*
X122955439Y-117579715D01*
X123206838Y-116972784D01*
X123335000Y-116328469D01*
X123335000Y-115671531D01*
X123206838Y-115027216D01*
X122955439Y-114420285D01*
X122590464Y-113874061D01*
X122125939Y-113409536D01*
X121579715Y-113044561D01*
X120972784Y-112793162D01*
X120328469Y-112665000D01*
X119671531Y-112665000D01*
X119027216Y-112793162D01*
X118420285Y-113044561D01*
X117874061Y-113409536D01*
X117409536Y-113874061D01*
X117044561Y-114420285D01*
X116793162Y-115027216D01*
X116665000Y-115671531D01*
X82335000Y-115671531D01*
X82206838Y-115027216D01*
X81955439Y-114420285D01*
X81590464Y-113874061D01*
X81125939Y-113409536D01*
X80579715Y-113044561D01*
X79972784Y-112793162D01*
X79328469Y-112665000D01*
X78671531Y-112665000D01*
X78027216Y-112793162D01*
X77420285Y-113044561D01*
X76874061Y-113409536D01*
X76660000Y-113623597D01*
X76660000Y-109250000D01*
X84511928Y-109250000D01*
X84511928Y-110750000D01*
X84528992Y-110923254D01*
X84579528Y-111089850D01*
X84661595Y-111243386D01*
X84772038Y-111377962D01*
X84906614Y-111488405D01*
X85060150Y-111570472D01*
X85226746Y-111621008D01*
X85400000Y-111638072D01*
X86600000Y-111638072D01*
X86773254Y-111621008D01*
X86939850Y-111570472D01*
X87093386Y-111488405D01*
X87227962Y-111377962D01*
X87338405Y-111243386D01*
X87392777Y-111141663D01*
X87444866Y-111205134D01*
X87670987Y-111390706D01*
X87928967Y-111528599D01*
X88208890Y-111613513D01*
X88500000Y-111642185D01*
X88791111Y-111613513D01*
X89071034Y-111528599D01*
X89329014Y-111390706D01*
X89555134Y-111205134D01*
X89740706Y-110979014D01*
X89878599Y-110721033D01*
X89963513Y-110441110D01*
X89985000Y-110222949D01*
X89985000Y-109777050D01*
X89963513Y-109558889D01*
X89878599Y-109278966D01*
X89740706Y-109020986D01*
X89555134Y-108794866D01*
X89329013Y-108609294D01*
X89071033Y-108471401D01*
X88791110Y-108386487D01*
X88500000Y-108357815D01*
X88208889Y-108386487D01*
X87928966Y-108471401D01*
X87670986Y-108609294D01*
X87444866Y-108794866D01*
X87392777Y-108858337D01*
X87338405Y-108756614D01*
X87227962Y-108622038D01*
X87093386Y-108511595D01*
X86939850Y-108429528D01*
X86773254Y-108378992D01*
X86600000Y-108361928D01*
X85400000Y-108361928D01*
X85226746Y-108378992D01*
X85060150Y-108429528D01*
X84906614Y-108511595D01*
X84772038Y-108622038D01*
X84661595Y-108756614D01*
X84579528Y-108910150D01*
X84528992Y-109076746D01*
X84511928Y-109250000D01*
X76660000Y-109250000D01*
X76660000Y-107449999D01*
X103321928Y-107449999D01*
X103321928Y-110550001D01*
X103338992Y-110723255D01*
X103389528Y-110889851D01*
X103471595Y-111043387D01*
X103582038Y-111177962D01*
X103716613Y-111288405D01*
X103870149Y-111370472D01*
X104036745Y-111421008D01*
X104209999Y-111438072D01*
X105790001Y-111438072D01*
X105963255Y-111421008D01*
X106129851Y-111370472D01*
X106283387Y-111288405D01*
X106417962Y-111177962D01*
X106528405Y-111043387D01*
X106610472Y-110889851D01*
X106661008Y-110723255D01*
X106678072Y-110550001D01*
X106678072Y-109127000D01*
X108405000Y-109127000D01*
X108405000Y-109887000D01*
X108461961Y-110211336D01*
X108581102Y-110518327D01*
X108757845Y-110796176D01*
X108985398Y-111034206D01*
X109255016Y-111223269D01*
X109556337Y-111356099D01*
X109693290Y-111389748D01*
X109953000Y-111270922D01*
X109953000Y-109127000D01*
X110207000Y-109127000D01*
X110207000Y-111270922D01*
X110466710Y-111389748D01*
X110603663Y-111356099D01*
X110904984Y-111223269D01*
X111174602Y-111034206D01*
X111402155Y-110796176D01*
X111578898Y-110518327D01*
X111698039Y-110211336D01*
X111755000Y-109887000D01*
X111755000Y-109127000D01*
X110207000Y-109127000D01*
X109953000Y-109127000D01*
X108405000Y-109127000D01*
X106678072Y-109127000D01*
X106678072Y-108113000D01*
X108405000Y-108113000D01*
X108405000Y-108873000D01*
X109953000Y-108873000D01*
X109953000Y-106729078D01*
X110207000Y-106729078D01*
X110207000Y-108873000D01*
X111755000Y-108873000D01*
X111755000Y-108113000D01*
X111698039Y-107788664D01*
X111578898Y-107481673D01*
X111402155Y-107203824D01*
X111174602Y-106965794D01*
X110904984Y-106776731D01*
X110603663Y-106643901D01*
X110466710Y-106610252D01*
X110207000Y-106729078D01*
X109953000Y-106729078D01*
X109693290Y-106610252D01*
X109556337Y-106643901D01*
X109255016Y-106776731D01*
X108985398Y-106965794D01*
X108757845Y-107203824D01*
X108581102Y-107481673D01*
X108461961Y-107788664D01*
X108405000Y-108113000D01*
X106678072Y-108113000D01*
X106678072Y-107449999D01*
X106661008Y-107276745D01*
X106610472Y-107110149D01*
X106528405Y-106956613D01*
X106417962Y-106822038D01*
X106283387Y-106711595D01*
X106129851Y-106629528D01*
X105963255Y-106578992D01*
X105790001Y-106561928D01*
X104209999Y-106561928D01*
X104036745Y-106578992D01*
X103870149Y-106629528D01*
X103716613Y-106711595D01*
X103582038Y-106822038D01*
X103471595Y-106956613D01*
X103389528Y-107110149D01*
X103338992Y-107276745D01*
X103321928Y-107449999D01*
X76660000Y-107449999D01*
X76660000Y-104200000D01*
X115561928Y-104200000D01*
X115561928Y-105800000D01*
X115574188Y-105924482D01*
X115610498Y-106044180D01*
X115669463Y-106154494D01*
X115748815Y-106251185D01*
X115845506Y-106330537D01*
X115955820Y-106389502D01*
X116075518Y-106425812D01*
X116200000Y-106438072D01*
X117800000Y-106438072D01*
X117924482Y-106425812D01*
X118044180Y-106389502D01*
X118154494Y-106330537D01*
X118251185Y-106251185D01*
X118330537Y-106154494D01*
X118389502Y-106044180D01*
X118405117Y-105992702D01*
X121186903Y-105992702D01*
X121258486Y-106236671D01*
X121513996Y-106357571D01*
X121788184Y-106426300D01*
X122070512Y-106440217D01*
X122350130Y-106398787D01*
X122616292Y-106303603D01*
X122741514Y-106236671D01*
X122813097Y-105992702D01*
X122000000Y-105179605D01*
X121186903Y-105992702D01*
X118405117Y-105992702D01*
X118425812Y-105924482D01*
X118438072Y-105800000D01*
X118438072Y-105070512D01*
X120559783Y-105070512D01*
X120601213Y-105350130D01*
X120696397Y-105616292D01*
X120763329Y-105741514D01*
X121007298Y-105813097D01*
X121820395Y-105000000D01*
X121007298Y-104186903D01*
X120763329Y-104258486D01*
X120642429Y-104513996D01*
X120573700Y-104788184D01*
X120559783Y-105070512D01*
X118438072Y-105070512D01*
X118438072Y-104200000D01*
X118425812Y-104075518D01*
X118405118Y-104007298D01*
X121186903Y-104007298D01*
X122000000Y-104820395D01*
X122813097Y-104007298D01*
X122741514Y-103763329D01*
X122486004Y-103642429D01*
X122211816Y-103573700D01*
X121929488Y-103559783D01*
X121649870Y-103601213D01*
X121383708Y-103696397D01*
X121258486Y-103763329D01*
X121186903Y-104007298D01*
X118405118Y-104007298D01*
X118389502Y-103955820D01*
X118330537Y-103845506D01*
X118251185Y-103748815D01*
X118154494Y-103669463D01*
X118044180Y-103610498D01*
X117924482Y-103574188D01*
X117800000Y-103561928D01*
X116200000Y-103561928D01*
X116075518Y-103574188D01*
X115955820Y-103610498D01*
X115845506Y-103669463D01*
X115748815Y-103748815D01*
X115669463Y-103845506D01*
X115610498Y-103955820D01*
X115574188Y-104075518D01*
X115561928Y-104200000D01*
X76660000Y-104200000D01*
X76660000Y-95858665D01*
X78565000Y-95858665D01*
X78565000Y-96141335D01*
X78620147Y-96418574D01*
X78728320Y-96679727D01*
X78885363Y-96914759D01*
X79085241Y-97114637D01*
X79320273Y-97271680D01*
X79581426Y-97379853D01*
X79858665Y-97435000D01*
X80141335Y-97435000D01*
X80418574Y-97379853D01*
X80679727Y-97271680D01*
X80914759Y-97114637D01*
X81114637Y-96914759D01*
X81271680Y-96679727D01*
X81379853Y-96418574D01*
X81435000Y-96141335D01*
X81435000Y-95858665D01*
X81428017Y-95823562D01*
X81456531Y-95795048D01*
X81456535Y-95795043D01*
X81609170Y-95642408D01*
X84633000Y-95642408D01*
X84633000Y-95917592D01*
X84686686Y-96187490D01*
X84791995Y-96441727D01*
X84944880Y-96670535D01*
X85139465Y-96865120D01*
X85368273Y-97018005D01*
X85622510Y-97123314D01*
X85892408Y-97177000D01*
X86167592Y-97177000D01*
X86437490Y-97123314D01*
X86691727Y-97018005D01*
X86920535Y-96865120D01*
X87115120Y-96670535D01*
X87268005Y-96441727D01*
X87373314Y-96187490D01*
X87427000Y-95917592D01*
X87427000Y-95642408D01*
X112573000Y-95642408D01*
X112573000Y-95917592D01*
X112626686Y-96187490D01*
X112731995Y-96441727D01*
X112884880Y-96670535D01*
X113079465Y-96865120D01*
X113308273Y-97018005D01*
X113562510Y-97123314D01*
X113832408Y-97177000D01*
X114107592Y-97177000D01*
X114377490Y-97123314D01*
X114631727Y-97018005D01*
X114860535Y-96865120D01*
X115055120Y-96670535D01*
X115208005Y-96441727D01*
X115313314Y-96187490D01*
X115367000Y-95917592D01*
X115367000Y-95642408D01*
X115313314Y-95372510D01*
X115208005Y-95118273D01*
X115055120Y-94889465D01*
X114860535Y-94694880D01*
X114631727Y-94541995D01*
X114560057Y-94512308D01*
X114573023Y-94507636D01*
X114688980Y-94445656D01*
X114755960Y-94205565D01*
X113970000Y-93419605D01*
X113184040Y-94205565D01*
X113251020Y-94445656D01*
X113386760Y-94509485D01*
X113308273Y-94541995D01*
X113079465Y-94694880D01*
X112884880Y-94889465D01*
X112731995Y-95118273D01*
X112626686Y-95372510D01*
X112573000Y-95642408D01*
X87427000Y-95642408D01*
X87373314Y-95372510D01*
X87268005Y-95118273D01*
X87115120Y-94889465D01*
X86920535Y-94694880D01*
X86691727Y-94541995D01*
X86620057Y-94512308D01*
X86633023Y-94507636D01*
X86748980Y-94445656D01*
X86815960Y-94205565D01*
X86030000Y-93419605D01*
X85244040Y-94205565D01*
X85311020Y-94445656D01*
X85446760Y-94509485D01*
X85368273Y-94541995D01*
X85139465Y-94694880D01*
X84944880Y-94889465D01*
X84791995Y-95118273D01*
X84686686Y-95372510D01*
X84633000Y-95642408D01*
X81609170Y-95642408D01*
X84454578Y-92797001D01*
X84700557Y-92797001D01*
X84640977Y-93037135D01*
X84628090Y-93312017D01*
X84669078Y-93584133D01*
X84762364Y-93843023D01*
X84824344Y-93958980D01*
X85064435Y-94025960D01*
X85850395Y-93240000D01*
X85836253Y-93225858D01*
X86015858Y-93046253D01*
X86030000Y-93060395D01*
X86044143Y-93046253D01*
X86223748Y-93225858D01*
X86209605Y-93240000D01*
X86995565Y-94025960D01*
X87235656Y-93958980D01*
X87352756Y-93709952D01*
X87419023Y-93442865D01*
X87425157Y-93312017D01*
X112568090Y-93312017D01*
X112609078Y-93584133D01*
X112702364Y-93843023D01*
X112764344Y-93958980D01*
X113004435Y-94025960D01*
X113790395Y-93240000D01*
X114149605Y-93240000D01*
X114935565Y-94025960D01*
X115175656Y-93958980D01*
X115292756Y-93709952D01*
X115359023Y-93442865D01*
X115371910Y-93167983D01*
X115330922Y-92895867D01*
X115237636Y-92636977D01*
X115175656Y-92521020D01*
X114935565Y-92454040D01*
X114149605Y-93240000D01*
X113790395Y-93240000D01*
X113004435Y-92454040D01*
X112764344Y-92521020D01*
X112647244Y-92770048D01*
X112580977Y-93037135D01*
X112568090Y-93312017D01*
X87425157Y-93312017D01*
X87431910Y-93167983D01*
X87390922Y-92895867D01*
X87355298Y-92797001D01*
X102554530Y-92797001D01*
X102597999Y-92801282D01*
X102641468Y-92797001D01*
X102641476Y-92797001D01*
X102771489Y-92784196D01*
X102938312Y-92733590D01*
X103092058Y-92651412D01*
X103226816Y-92540818D01*
X103254533Y-92507045D01*
X112573000Y-83188579D01*
X112573000Y-83217592D01*
X112626686Y-83487490D01*
X112731995Y-83741727D01*
X112884880Y-83970535D01*
X113079465Y-84165120D01*
X113308273Y-84318005D01*
X113385515Y-84350000D01*
X113308273Y-84381995D01*
X113079465Y-84534880D01*
X112884880Y-84729465D01*
X112731995Y-84958273D01*
X112626686Y-85212510D01*
X112573000Y-85482408D01*
X112573000Y-85757592D01*
X112626686Y-86027490D01*
X112731995Y-86281727D01*
X112884880Y-86510535D01*
X113079465Y-86705120D01*
X113308273Y-86858005D01*
X113385515Y-86890000D01*
X113308273Y-86921995D01*
X113079465Y-87074880D01*
X112884880Y-87269465D01*
X112731995Y-87498273D01*
X112626686Y-87752510D01*
X112573000Y-88022408D01*
X112573000Y-88297592D01*
X112626686Y-88567490D01*
X112731995Y-88821727D01*
X112884880Y-89050535D01*
X113079465Y-89245120D01*
X113308273Y-89398005D01*
X113385515Y-89430000D01*
X113308273Y-89461995D01*
X113079465Y-89614880D01*
X112884880Y-89809465D01*
X112731995Y-90038273D01*
X112626686Y-90292510D01*
X112573000Y-90562408D01*
X112573000Y-90837592D01*
X112626686Y-91107490D01*
X112731995Y-91361727D01*
X112884880Y-91590535D01*
X113079465Y-91785120D01*
X113308273Y-91938005D01*
X113379943Y-91967692D01*
X113366977Y-91972364D01*
X113251020Y-92034344D01*
X113184040Y-92274435D01*
X113970000Y-93060395D01*
X114755960Y-92274435D01*
X114688980Y-92034344D01*
X114553240Y-91970515D01*
X114631727Y-91938005D01*
X114860535Y-91785120D01*
X115055120Y-91590535D01*
X115208005Y-91361727D01*
X115313314Y-91107490D01*
X115367000Y-90837592D01*
X115367000Y-90562408D01*
X115313314Y-90292510D01*
X115208005Y-90038273D01*
X115055120Y-89809465D01*
X114860535Y-89614880D01*
X114631727Y-89461995D01*
X114554485Y-89430000D01*
X114631727Y-89398005D01*
X114860535Y-89245120D01*
X115055120Y-89050535D01*
X115208005Y-88821727D01*
X115313314Y-88567490D01*
X115367000Y-88297592D01*
X115367000Y-88022408D01*
X115313314Y-87752510D01*
X115208005Y-87498273D01*
X115055120Y-87269465D01*
X114860535Y-87074880D01*
X114631727Y-86921995D01*
X114554485Y-86890000D01*
X114631727Y-86858005D01*
X114860535Y-86705120D01*
X115055120Y-86510535D01*
X115208005Y-86281727D01*
X115313314Y-86027490D01*
X115367000Y-85757592D01*
X115367000Y-85482408D01*
X115313314Y-85212510D01*
X115208005Y-84958273D01*
X115055120Y-84729465D01*
X114860535Y-84534880D01*
X114631727Y-84381995D01*
X114554485Y-84350000D01*
X114631727Y-84318005D01*
X114860535Y-84165120D01*
X115055120Y-83970535D01*
X115208005Y-83741727D01*
X115313314Y-83487490D01*
X115367000Y-83217592D01*
X115367000Y-82942408D01*
X115313314Y-82672510D01*
X115208005Y-82418273D01*
X115055120Y-82189465D01*
X114860535Y-81994880D01*
X114631727Y-81841995D01*
X114554485Y-81810000D01*
X114631727Y-81778005D01*
X114860535Y-81625120D01*
X115055120Y-81430535D01*
X115208005Y-81201727D01*
X115313314Y-80947490D01*
X115367000Y-80677592D01*
X115367000Y-80402408D01*
X115313314Y-80132510D01*
X115208005Y-79878273D01*
X115055120Y-79649465D01*
X114860535Y-79454880D01*
X114631727Y-79301995D01*
X114554485Y-79270000D01*
X114631727Y-79238005D01*
X114860535Y-79085120D01*
X115055120Y-78890535D01*
X115208005Y-78661727D01*
X115313314Y-78407490D01*
X115367000Y-78137592D01*
X115367000Y-77862408D01*
X115313314Y-77592510D01*
X115208005Y-77338273D01*
X115055120Y-77109465D01*
X114860535Y-76914880D01*
X114631727Y-76761995D01*
X114560057Y-76732308D01*
X114573023Y-76727636D01*
X114688980Y-76665656D01*
X114755960Y-76425565D01*
X113970000Y-75639605D01*
X113184040Y-76425565D01*
X113251020Y-76665656D01*
X113386760Y-76729485D01*
X113308273Y-76761995D01*
X113079465Y-76914880D01*
X112884880Y-77109465D01*
X112731995Y-77338273D01*
X112626686Y-77592510D01*
X112573000Y-77862408D01*
X112573000Y-78137592D01*
X112626686Y-78407490D01*
X112731995Y-78661727D01*
X112884880Y-78890535D01*
X113079465Y-79085120D01*
X113308273Y-79238005D01*
X113385515Y-79270000D01*
X113308273Y-79301995D01*
X113079465Y-79454880D01*
X112884880Y-79649465D01*
X112731995Y-79878273D01*
X112626686Y-80132510D01*
X112573000Y-80402408D01*
X112573000Y-80677592D01*
X112574299Y-80684122D01*
X102231421Y-91027001D01*
X87389324Y-91027001D01*
X87427000Y-90837592D01*
X87427000Y-90562408D01*
X87373314Y-90292510D01*
X87268005Y-90038273D01*
X87115120Y-89809465D01*
X86920535Y-89614880D01*
X86691727Y-89461995D01*
X86614485Y-89430000D01*
X86691727Y-89398005D01*
X86920535Y-89245120D01*
X87115120Y-89050535D01*
X87268005Y-88821727D01*
X87373314Y-88567490D01*
X87427000Y-88297592D01*
X87427000Y-88022408D01*
X87373314Y-87752510D01*
X87268005Y-87498273D01*
X87115120Y-87269465D01*
X86920535Y-87074880D01*
X86691727Y-86921995D01*
X86614485Y-86890000D01*
X86691727Y-86858005D01*
X86920535Y-86705120D01*
X87115120Y-86510535D01*
X87268005Y-86281727D01*
X87373314Y-86027490D01*
X87427000Y-85757592D01*
X87427000Y-85482408D01*
X87373314Y-85212510D01*
X87268005Y-84958273D01*
X87115120Y-84729465D01*
X86920535Y-84534880D01*
X86691727Y-84381995D01*
X86620057Y-84352308D01*
X86633023Y-84347636D01*
X86748980Y-84285656D01*
X86815960Y-84045565D01*
X86030000Y-83259605D01*
X85244040Y-84045565D01*
X85311020Y-84285656D01*
X85446760Y-84349485D01*
X85368273Y-84381995D01*
X85139465Y-84534880D01*
X84944880Y-84729465D01*
X84791995Y-84958273D01*
X84686686Y-85212510D01*
X84633000Y-85482408D01*
X84633000Y-85757592D01*
X84686686Y-86027490D01*
X84791995Y-86281727D01*
X84944880Y-86510535D01*
X85139465Y-86705120D01*
X85368273Y-86858005D01*
X85445515Y-86890000D01*
X85368273Y-86921995D01*
X85139465Y-87074880D01*
X84944880Y-87269465D01*
X84791995Y-87498273D01*
X84686686Y-87752510D01*
X84633000Y-88022408D01*
X84633000Y-88297592D01*
X84686686Y-88567490D01*
X84791995Y-88821727D01*
X84944880Y-89050535D01*
X85139465Y-89245120D01*
X85368273Y-89398005D01*
X85445515Y-89430000D01*
X85368273Y-89461995D01*
X85139465Y-89614880D01*
X84944880Y-89809465D01*
X84791995Y-90038273D01*
X84686686Y-90292510D01*
X84633000Y-90562408D01*
X84633000Y-90837592D01*
X84670676Y-91027001D01*
X84131464Y-91027001D01*
X84087998Y-91022720D01*
X84044532Y-91027001D01*
X84044522Y-91027001D01*
X83914509Y-91039806D01*
X83747686Y-91090412D01*
X83593940Y-91172590D01*
X83593938Y-91172591D01*
X83593939Y-91172591D01*
X83492952Y-91255469D01*
X83492950Y-91255471D01*
X83459182Y-91283184D01*
X83431469Y-91316952D01*
X80204957Y-94543465D01*
X80204952Y-94543469D01*
X80176438Y-94571983D01*
X80141335Y-94565000D01*
X79858665Y-94565000D01*
X79581426Y-94620147D01*
X79320273Y-94728320D01*
X79085241Y-94885363D01*
X78885363Y-95085241D01*
X78728320Y-95320273D01*
X78620147Y-95581426D01*
X78565000Y-95858665D01*
X76660000Y-95858665D01*
X76660000Y-86189040D01*
X78608091Y-86189040D01*
X78702930Y-86453881D01*
X78847615Y-86695131D01*
X79036586Y-86903519D01*
X79262580Y-87071037D01*
X79516913Y-87191246D01*
X79650961Y-87231904D01*
X79873000Y-87109915D01*
X79873000Y-85967000D01*
X80127000Y-85967000D01*
X80127000Y-87109915D01*
X80349039Y-87231904D01*
X80483087Y-87191246D01*
X80737420Y-87071037D01*
X80963414Y-86903519D01*
X81152385Y-86695131D01*
X81297070Y-86453881D01*
X81391909Y-86189040D01*
X81270624Y-85967000D01*
X80127000Y-85967000D01*
X79873000Y-85967000D01*
X78729376Y-85967000D01*
X78608091Y-86189040D01*
X76660000Y-86189040D01*
X76660000Y-85490960D01*
X78608091Y-85490960D01*
X78729376Y-85713000D01*
X79873000Y-85713000D01*
X79873000Y-84570085D01*
X80127000Y-84570085D01*
X80127000Y-85713000D01*
X81270624Y-85713000D01*
X81391909Y-85490960D01*
X81297070Y-85226119D01*
X81152385Y-84984869D01*
X80963414Y-84776481D01*
X80737420Y-84608963D01*
X80483087Y-84488754D01*
X80349039Y-84448096D01*
X80127000Y-84570085D01*
X79873000Y-84570085D01*
X79650961Y-84448096D01*
X79516913Y-84488754D01*
X79262580Y-84608963D01*
X79036586Y-84776481D01*
X78847615Y-84984869D01*
X78702930Y-85226119D01*
X78608091Y-85490960D01*
X76660000Y-85490960D01*
X76660000Y-83152017D01*
X84628090Y-83152017D01*
X84669078Y-83424133D01*
X84762364Y-83683023D01*
X84824344Y-83798980D01*
X85064435Y-83865960D01*
X85850395Y-83080000D01*
X86209605Y-83080000D01*
X86995565Y-83865960D01*
X87235656Y-83798980D01*
X87352756Y-83549952D01*
X87419023Y-83282865D01*
X87431910Y-83007983D01*
X87390922Y-82735867D01*
X87297636Y-82476977D01*
X87235656Y-82361020D01*
X86995565Y-82294040D01*
X86209605Y-83080000D01*
X85850395Y-83080000D01*
X85064435Y-82294040D01*
X84824344Y-82361020D01*
X84707244Y-82610048D01*
X84640977Y-82877135D01*
X84628090Y-83152017D01*
X76660000Y-83152017D01*
X76660000Y-60082408D01*
X84633000Y-60082408D01*
X84633000Y-60357592D01*
X84686686Y-60627490D01*
X84791995Y-60881727D01*
X84944880Y-61110535D01*
X85139465Y-61305120D01*
X85368273Y-61458005D01*
X85445515Y-61490000D01*
X85368273Y-61521995D01*
X85139465Y-61674880D01*
X84944880Y-61869465D01*
X84791995Y-62098273D01*
X84686686Y-62352510D01*
X84633000Y-62622408D01*
X84633000Y-62897592D01*
X84686686Y-63167490D01*
X84791995Y-63421727D01*
X84944880Y-63650535D01*
X85139465Y-63845120D01*
X85368273Y-63998005D01*
X85445515Y-64030000D01*
X85368273Y-64061995D01*
X85139465Y-64214880D01*
X84944880Y-64409465D01*
X84791995Y-64638273D01*
X84686686Y-64892510D01*
X84633000Y-65162408D01*
X84633000Y-65437592D01*
X84686686Y-65707490D01*
X84791995Y-65961727D01*
X84944880Y-66190535D01*
X85139465Y-66385120D01*
X85368273Y-66538005D01*
X85445515Y-66570000D01*
X85368273Y-66601995D01*
X85139465Y-66754880D01*
X84944880Y-66949465D01*
X84791995Y-67178273D01*
X84686686Y-67432510D01*
X84633000Y-67702408D01*
X84633000Y-67977592D01*
X84686686Y-68247490D01*
X84791995Y-68501727D01*
X84944880Y-68730535D01*
X85139465Y-68925120D01*
X85368273Y-69078005D01*
X85445515Y-69110000D01*
X85368273Y-69141995D01*
X85139465Y-69294880D01*
X84944880Y-69489465D01*
X84791995Y-69718273D01*
X84686686Y-69972510D01*
X84633000Y-70242408D01*
X84633000Y-70517592D01*
X84686686Y-70787490D01*
X84791995Y-71041727D01*
X84944880Y-71270535D01*
X85139465Y-71465120D01*
X85368273Y-71618005D01*
X85445515Y-71650000D01*
X85368273Y-71681995D01*
X85139465Y-71834880D01*
X84944880Y-72029465D01*
X84791995Y-72258273D01*
X84686686Y-72512510D01*
X84633000Y-72782408D01*
X84633000Y-73057592D01*
X84686686Y-73327490D01*
X84791995Y-73581727D01*
X84944880Y-73810535D01*
X85139465Y-74005120D01*
X85368273Y-74158005D01*
X85445515Y-74190000D01*
X85368273Y-74221995D01*
X85139465Y-74374880D01*
X84944880Y-74569465D01*
X84791995Y-74798273D01*
X84686686Y-75052510D01*
X84633000Y-75322408D01*
X84633000Y-75597592D01*
X84686686Y-75867490D01*
X84791995Y-76121727D01*
X84944880Y-76350535D01*
X85139465Y-76545120D01*
X85368273Y-76698005D01*
X85445515Y-76730000D01*
X85368273Y-76761995D01*
X85139465Y-76914880D01*
X84944880Y-77109465D01*
X84791995Y-77338273D01*
X84686686Y-77592510D01*
X84633000Y-77862408D01*
X84633000Y-78137592D01*
X84686686Y-78407490D01*
X84791995Y-78661727D01*
X84944880Y-78890535D01*
X85139465Y-79085120D01*
X85368273Y-79238005D01*
X85445515Y-79270000D01*
X85368273Y-79301995D01*
X85139465Y-79454880D01*
X84944880Y-79649465D01*
X84791995Y-79878273D01*
X84686686Y-80132510D01*
X84633000Y-80402408D01*
X84633000Y-80677592D01*
X84686686Y-80947490D01*
X84791995Y-81201727D01*
X84944880Y-81430535D01*
X85139465Y-81625120D01*
X85368273Y-81778005D01*
X85439943Y-81807692D01*
X85426977Y-81812364D01*
X85311020Y-81874344D01*
X85244040Y-82114435D01*
X86030000Y-82900395D01*
X86815960Y-82114435D01*
X86748980Y-81874344D01*
X86613240Y-81810515D01*
X86691727Y-81778005D01*
X86920535Y-81625120D01*
X87115120Y-81430535D01*
X87268005Y-81201727D01*
X87373314Y-80947490D01*
X87427000Y-80677592D01*
X87427000Y-80402408D01*
X87373314Y-80132510D01*
X87268005Y-79878273D01*
X87115120Y-79649465D01*
X86920535Y-79454880D01*
X86691727Y-79301995D01*
X86614485Y-79270000D01*
X86691727Y-79238005D01*
X86920535Y-79085120D01*
X87115120Y-78890535D01*
X87268005Y-78661727D01*
X87373314Y-78407490D01*
X87427000Y-78137592D01*
X87427000Y-77862408D01*
X87373314Y-77592510D01*
X87268005Y-77338273D01*
X87115120Y-77109465D01*
X86920535Y-76914880D01*
X86691727Y-76761995D01*
X86614485Y-76730000D01*
X86691727Y-76698005D01*
X86920535Y-76545120D01*
X87115120Y-76350535D01*
X87268005Y-76121727D01*
X87373314Y-75867490D01*
X87427000Y-75597592D01*
X87427000Y-75532017D01*
X112568090Y-75532017D01*
X112609078Y-75804133D01*
X112702364Y-76063023D01*
X112764344Y-76178980D01*
X113004435Y-76245960D01*
X113790395Y-75460000D01*
X114149605Y-75460000D01*
X114935565Y-76245960D01*
X115175656Y-76178980D01*
X115292756Y-75929952D01*
X115359023Y-75662865D01*
X115371910Y-75387983D01*
X115330922Y-75115867D01*
X115237636Y-74856977D01*
X115175656Y-74741020D01*
X114935565Y-74674040D01*
X114149605Y-75460000D01*
X113790395Y-75460000D01*
X113004435Y-74674040D01*
X112764344Y-74741020D01*
X112647244Y-74990048D01*
X112580977Y-75257135D01*
X112568090Y-75532017D01*
X87427000Y-75532017D01*
X87427000Y-75322408D01*
X87373314Y-75052510D01*
X87268005Y-74798273D01*
X87115120Y-74569465D01*
X86920535Y-74374880D01*
X86691727Y-74221995D01*
X86614485Y-74190000D01*
X86691727Y-74158005D01*
X86920535Y-74005120D01*
X87115120Y-73810535D01*
X87268005Y-73581727D01*
X87373314Y-73327490D01*
X87427000Y-73057592D01*
X87427000Y-72782408D01*
X87373314Y-72512510D01*
X87268005Y-72258273D01*
X87115120Y-72029465D01*
X86920535Y-71834880D01*
X86691727Y-71681995D01*
X86614485Y-71650000D01*
X86691727Y-71618005D01*
X86920535Y-71465120D01*
X87115120Y-71270535D01*
X87268005Y-71041727D01*
X87373314Y-70787490D01*
X87427000Y-70517592D01*
X87427000Y-70242408D01*
X87373314Y-69972510D01*
X87268005Y-69718273D01*
X87115120Y-69489465D01*
X86920535Y-69294880D01*
X86691727Y-69141995D01*
X86614485Y-69110000D01*
X86691727Y-69078005D01*
X86920535Y-68925120D01*
X87115120Y-68730535D01*
X87268005Y-68501727D01*
X87373314Y-68247490D01*
X87427000Y-67977592D01*
X87427000Y-67702408D01*
X87373314Y-67432510D01*
X87268005Y-67178273D01*
X87115120Y-66949465D01*
X86920535Y-66754880D01*
X86691727Y-66601995D01*
X86614485Y-66570000D01*
X86691727Y-66538005D01*
X86920535Y-66385120D01*
X87115120Y-66190535D01*
X87268005Y-65961727D01*
X87373314Y-65707490D01*
X87427000Y-65437592D01*
X87427000Y-65162408D01*
X87373314Y-64892510D01*
X87268005Y-64638273D01*
X87115120Y-64409465D01*
X86920535Y-64214880D01*
X86691727Y-64061995D01*
X86614485Y-64030000D01*
X86691727Y-63998005D01*
X86920535Y-63845120D01*
X87115120Y-63650535D01*
X87268005Y-63421727D01*
X87373314Y-63167490D01*
X87427000Y-62897592D01*
X87427000Y-62622408D01*
X87373314Y-62352510D01*
X87268005Y-62098273D01*
X87115120Y-61869465D01*
X86920535Y-61674880D01*
X86691727Y-61521995D01*
X86614485Y-61490000D01*
X86691727Y-61458005D01*
X86920535Y-61305120D01*
X87115120Y-61110535D01*
X87268005Y-60881727D01*
X87373314Y-60627490D01*
X87427000Y-60357592D01*
X87427000Y-60082408D01*
X112573000Y-60082408D01*
X112573000Y-60357592D01*
X112626686Y-60627490D01*
X112731995Y-60881727D01*
X112884880Y-61110535D01*
X113079465Y-61305120D01*
X113308273Y-61458005D01*
X113385515Y-61490000D01*
X113308273Y-61521995D01*
X113079465Y-61674880D01*
X112884880Y-61869465D01*
X112731995Y-62098273D01*
X112626686Y-62352510D01*
X112573000Y-62622408D01*
X112573000Y-62897592D01*
X112626686Y-63167490D01*
X112731995Y-63421727D01*
X112884880Y-63650535D01*
X113079465Y-63845120D01*
X113308273Y-63998005D01*
X113385515Y-64030000D01*
X113308273Y-64061995D01*
X113079465Y-64214880D01*
X112884880Y-64409465D01*
X112731995Y-64638273D01*
X112626686Y-64892510D01*
X112573000Y-65162408D01*
X112573000Y-65437592D01*
X112626686Y-65707490D01*
X112731995Y-65961727D01*
X112884880Y-66190535D01*
X113079465Y-66385120D01*
X113308273Y-66538005D01*
X113385515Y-66570000D01*
X113308273Y-66601995D01*
X113079465Y-66754880D01*
X112884880Y-66949465D01*
X112731995Y-67178273D01*
X112626686Y-67432510D01*
X112573000Y-67702408D01*
X112573000Y-67977592D01*
X112626686Y-68247490D01*
X112731995Y-68501727D01*
X112884880Y-68730535D01*
X113079465Y-68925120D01*
X113308273Y-69078005D01*
X113385515Y-69110000D01*
X113308273Y-69141995D01*
X113079465Y-69294880D01*
X112884880Y-69489465D01*
X112731995Y-69718273D01*
X112626686Y-69972510D01*
X112573000Y-70242408D01*
X112573000Y-70517592D01*
X112626686Y-70787490D01*
X112731995Y-71041727D01*
X112884880Y-71270535D01*
X113079465Y-71465120D01*
X113308273Y-71618005D01*
X113385515Y-71650000D01*
X113308273Y-71681995D01*
X113079465Y-71834880D01*
X112884880Y-72029465D01*
X112731995Y-72258273D01*
X112626686Y-72512510D01*
X112573000Y-72782408D01*
X112573000Y-73057592D01*
X112626686Y-73327490D01*
X112731995Y-73581727D01*
X112884880Y-73810535D01*
X113079465Y-74005120D01*
X113308273Y-74158005D01*
X113379943Y-74187692D01*
X113366977Y-74192364D01*
X113251020Y-74254344D01*
X113184040Y-74494435D01*
X113970000Y-75280395D01*
X114755960Y-74494435D01*
X114688980Y-74254344D01*
X114553240Y-74190515D01*
X114631727Y-74158005D01*
X114860535Y-74005120D01*
X115055120Y-73810535D01*
X115208005Y-73581727D01*
X115238113Y-73509040D01*
X117608091Y-73509040D01*
X117702930Y-73773881D01*
X117847615Y-74015131D01*
X118036586Y-74223519D01*
X118262580Y-74391037D01*
X118516913Y-74511246D01*
X118650961Y-74551904D01*
X118873000Y-74429915D01*
X118873000Y-73287000D01*
X119127000Y-73287000D01*
X119127000Y-74429915D01*
X119349039Y-74551904D01*
X119483087Y-74511246D01*
X119737420Y-74391037D01*
X119963414Y-74223519D01*
X120152385Y-74015131D01*
X120297070Y-73773881D01*
X120391909Y-73509040D01*
X120270624Y-73287000D01*
X119127000Y-73287000D01*
X118873000Y-73287000D01*
X117729376Y-73287000D01*
X117608091Y-73509040D01*
X115238113Y-73509040D01*
X115313314Y-73327490D01*
X115367000Y-73057592D01*
X115367000Y-72810960D01*
X117608091Y-72810960D01*
X117729376Y-73033000D01*
X118873000Y-73033000D01*
X118873000Y-71890085D01*
X119127000Y-71890085D01*
X119127000Y-73033000D01*
X120270624Y-73033000D01*
X120391909Y-72810960D01*
X120297070Y-72546119D01*
X120152385Y-72304869D01*
X119963414Y-72096481D01*
X119737420Y-71928963D01*
X119483087Y-71808754D01*
X119349039Y-71768096D01*
X119127000Y-71890085D01*
X118873000Y-71890085D01*
X118650961Y-71768096D01*
X118516913Y-71808754D01*
X118262580Y-71928963D01*
X118036586Y-72096481D01*
X117847615Y-72304869D01*
X117702930Y-72546119D01*
X117608091Y-72810960D01*
X115367000Y-72810960D01*
X115367000Y-72782408D01*
X115313314Y-72512510D01*
X115208005Y-72258273D01*
X115055120Y-72029465D01*
X114860535Y-71834880D01*
X114631727Y-71681995D01*
X114554485Y-71650000D01*
X114631727Y-71618005D01*
X114860535Y-71465120D01*
X115055120Y-71270535D01*
X115208005Y-71041727D01*
X115313314Y-70787490D01*
X115367000Y-70517592D01*
X115367000Y-70242408D01*
X115313314Y-69972510D01*
X115208005Y-69718273D01*
X115055120Y-69489465D01*
X114860535Y-69294880D01*
X114631727Y-69141995D01*
X114554485Y-69110000D01*
X114631727Y-69078005D01*
X114860535Y-68925120D01*
X115055120Y-68730535D01*
X115208005Y-68501727D01*
X115313314Y-68247490D01*
X115367000Y-67977592D01*
X115367000Y-67702408D01*
X115313314Y-67432510D01*
X115208005Y-67178273D01*
X115055120Y-66949465D01*
X114860535Y-66754880D01*
X114631727Y-66601995D01*
X114554485Y-66570000D01*
X114631727Y-66538005D01*
X114860535Y-66385120D01*
X115055120Y-66190535D01*
X115208005Y-65961727D01*
X115313314Y-65707490D01*
X115367000Y-65437592D01*
X115367000Y-65162408D01*
X115313314Y-64892510D01*
X115208005Y-64638273D01*
X115055120Y-64409465D01*
X114860535Y-64214880D01*
X114631727Y-64061995D01*
X114554485Y-64030000D01*
X114631727Y-63998005D01*
X114860535Y-63845120D01*
X115055120Y-63650535D01*
X115208005Y-63421727D01*
X115313314Y-63167490D01*
X115367000Y-62897592D01*
X115367000Y-62858665D01*
X117565000Y-62858665D01*
X117565000Y-63141335D01*
X117620147Y-63418574D01*
X117728320Y-63679727D01*
X117885363Y-63914759D01*
X118085241Y-64114637D01*
X118320273Y-64271680D01*
X118581426Y-64379853D01*
X118858665Y-64435000D01*
X119141335Y-64435000D01*
X119418574Y-64379853D01*
X119679727Y-64271680D01*
X119914759Y-64114637D01*
X120114637Y-63914759D01*
X120271680Y-63679727D01*
X120379853Y-63418574D01*
X120435000Y-63141335D01*
X120435000Y-62858665D01*
X120379853Y-62581426D01*
X120271680Y-62320273D01*
X120114637Y-62085241D01*
X119914759Y-61885363D01*
X119679727Y-61728320D01*
X119418574Y-61620147D01*
X119141335Y-61565000D01*
X118858665Y-61565000D01*
X118581426Y-61620147D01*
X118320273Y-61728320D01*
X118085241Y-61885363D01*
X117885363Y-62085241D01*
X117728320Y-62320273D01*
X117620147Y-62581426D01*
X117565000Y-62858665D01*
X115367000Y-62858665D01*
X115367000Y-62622408D01*
X115313314Y-62352510D01*
X115208005Y-62098273D01*
X115055120Y-61869465D01*
X114860535Y-61674880D01*
X114631727Y-61521995D01*
X114554485Y-61490000D01*
X114631727Y-61458005D01*
X114860535Y-61305120D01*
X115055120Y-61110535D01*
X115208005Y-60881727D01*
X115313314Y-60627490D01*
X115367000Y-60357592D01*
X115367000Y-60082408D01*
X115313314Y-59812510D01*
X115208005Y-59558273D01*
X115055120Y-59329465D01*
X114860535Y-59134880D01*
X114631727Y-58981995D01*
X114377490Y-58876686D01*
X114107592Y-58823000D01*
X113832408Y-58823000D01*
X113562510Y-58876686D01*
X113308273Y-58981995D01*
X113079465Y-59134880D01*
X112884880Y-59329465D01*
X112731995Y-59558273D01*
X112626686Y-59812510D01*
X112573000Y-60082408D01*
X87427000Y-60082408D01*
X87373314Y-59812510D01*
X87268005Y-59558273D01*
X87115120Y-59329465D01*
X86920535Y-59134880D01*
X86691727Y-58981995D01*
X86437490Y-58876686D01*
X86167592Y-58823000D01*
X85892408Y-58823000D01*
X85622510Y-58876686D01*
X85368273Y-58981995D01*
X85139465Y-59134880D01*
X84944880Y-59329465D01*
X84791995Y-59558273D01*
X84686686Y-59812510D01*
X84633000Y-60082408D01*
X76660000Y-60082408D01*
X76660000Y-46500000D01*
X108357815Y-46500000D01*
X108386487Y-46791111D01*
X108471401Y-47071034D01*
X108609294Y-47329014D01*
X108794866Y-47555134D01*
X108858337Y-47607223D01*
X108756614Y-47661595D01*
X108622038Y-47772038D01*
X108511595Y-47906614D01*
X108429528Y-48060150D01*
X108378992Y-48226746D01*
X108361928Y-48400000D01*
X108361928Y-49600000D01*
X108378992Y-49773254D01*
X108429528Y-49939850D01*
X108511595Y-50093386D01*
X108622038Y-50227962D01*
X108756614Y-50338405D01*
X108910150Y-50420472D01*
X109076746Y-50471008D01*
X109250000Y-50488072D01*
X110750000Y-50488072D01*
X110923254Y-50471008D01*
X111089850Y-50420472D01*
X111243386Y-50338405D01*
X111377962Y-50227962D01*
X111488405Y-50093386D01*
X111570472Y-49939850D01*
X111621008Y-49773254D01*
X111638072Y-49600000D01*
X111638072Y-48400000D01*
X111621008Y-48226746D01*
X111570472Y-48060150D01*
X111488405Y-47906614D01*
X111377962Y-47772038D01*
X111243386Y-47661595D01*
X111141663Y-47607223D01*
X111205134Y-47555134D01*
X111390706Y-47329014D01*
X111528599Y-47071034D01*
X111613513Y-46791111D01*
X111642185Y-46500000D01*
X111613513Y-46208889D01*
X111528599Y-45928966D01*
X111390706Y-45670986D01*
X111205134Y-45444866D01*
X110979014Y-45259294D01*
X110721034Y-45121401D01*
X110441111Y-45036487D01*
X110222950Y-45015000D01*
X109777050Y-45015000D01*
X109558889Y-45036487D01*
X109278966Y-45121401D01*
X109020986Y-45259294D01*
X108794866Y-45444866D01*
X108609294Y-45670986D01*
X108471401Y-45928966D01*
X108386487Y-46208889D01*
X108357815Y-46500000D01*
X76660000Y-46500000D01*
X76660000Y-40858665D01*
X105565000Y-40858665D01*
X105565000Y-41141335D01*
X105620147Y-41418574D01*
X105728320Y-41679727D01*
X105885363Y-41914759D01*
X106085241Y-42114637D01*
X106320273Y-42271680D01*
X106581426Y-42379853D01*
X106858665Y-42435000D01*
X107141335Y-42435000D01*
X107418574Y-42379853D01*
X107679727Y-42271680D01*
X107914759Y-42114637D01*
X108114637Y-41914759D01*
X108271680Y-41679727D01*
X108379853Y-41418574D01*
X108435000Y-41141335D01*
X108435000Y-41000000D01*
X115718057Y-41000000D01*
X115745764Y-41281309D01*
X115827818Y-41551808D01*
X115961068Y-41801101D01*
X116140392Y-42019608D01*
X116358899Y-42198932D01*
X116608192Y-42332182D01*
X116878691Y-42414236D01*
X117089508Y-42435000D01*
X117230492Y-42435000D01*
X117441309Y-42414236D01*
X117711808Y-42332182D01*
X117961101Y-42198932D01*
X118179608Y-42019608D01*
X118358932Y-41801101D01*
X118492182Y-41551808D01*
X118574236Y-41281309D01*
X118601943Y-41000000D01*
X118574236Y-40718691D01*
X118492182Y-40448192D01*
X118358932Y-40198899D01*
X118179608Y-39980392D01*
X117961101Y-39801068D01*
X117711808Y-39667818D01*
X117441309Y-39585764D01*
X117230492Y-39565000D01*
X117089508Y-39565000D01*
X116878691Y-39585764D01*
X116608192Y-39667818D01*
X116358899Y-39801068D01*
X116140392Y-39980392D01*
X115961068Y-40198899D01*
X115827818Y-40448192D01*
X115745764Y-40718691D01*
X115718057Y-41000000D01*
X108435000Y-41000000D01*
X108435000Y-40858665D01*
X108379853Y-40581426D01*
X108271680Y-40320273D01*
X108114637Y-40085241D01*
X107914759Y-39885363D01*
X107679727Y-39728320D01*
X107418574Y-39620147D01*
X107141335Y-39565000D01*
X106858665Y-39565000D01*
X106581426Y-39620147D01*
X106320273Y-39728320D01*
X106085241Y-39885363D01*
X105885363Y-40085241D01*
X105728320Y-40320273D01*
X105620147Y-40581426D01*
X105565000Y-40858665D01*
X76660000Y-40858665D01*
X76660000Y-35359267D01*
X87533680Y-35359267D01*
X87607558Y-35640830D01*
X87734947Y-35902570D01*
X87910951Y-36134429D01*
X88128807Y-36327496D01*
X88380142Y-36474352D01*
X88643110Y-36566476D01*
X88873000Y-36445155D01*
X88873000Y-35127000D01*
X87673835Y-35127000D01*
X87533680Y-35359267D01*
X76660000Y-35359267D01*
X76660000Y-34640733D01*
X87533680Y-34640733D01*
X87673835Y-34873000D01*
X88873000Y-34873000D01*
X88873000Y-33554845D01*
X89127000Y-33554845D01*
X89127000Y-34873000D01*
X89147000Y-34873000D01*
X89147000Y-35127000D01*
X89127000Y-35127000D01*
X89127000Y-36445155D01*
X89356890Y-36566476D01*
X89619858Y-36474352D01*
X89871193Y-36327496D01*
X90089049Y-36134429D01*
X90245538Y-35928278D01*
X90259294Y-35954013D01*
X90444866Y-36180134D01*
X90670986Y-36365706D01*
X90928966Y-36503599D01*
X91208889Y-36588513D01*
X91500000Y-36617185D01*
X91791110Y-36588513D01*
X92071033Y-36503599D01*
X92329013Y-36365706D01*
X92555134Y-36180134D01*
X92607223Y-36116663D01*
X92661595Y-36218386D01*
X92772038Y-36352962D01*
X92906614Y-36463405D01*
X93060150Y-36545472D01*
X93226746Y-36596008D01*
X93400000Y-36613072D01*
X94600000Y-36613072D01*
X94773254Y-36596008D01*
X94939850Y-36545472D01*
X95093386Y-36463405D01*
X95227962Y-36352962D01*
X95338405Y-36218386D01*
X95420472Y-36064850D01*
X95471008Y-35898254D01*
X95488072Y-35725000D01*
X95488072Y-35359267D01*
X105533680Y-35359267D01*
X105607558Y-35640830D01*
X105734947Y-35902570D01*
X105910951Y-36134429D01*
X106128807Y-36327496D01*
X106380142Y-36474352D01*
X106643110Y-36566476D01*
X106873000Y-36445155D01*
X106873000Y-35127000D01*
X105673835Y-35127000D01*
X105533680Y-35359267D01*
X95488072Y-35359267D01*
X95488072Y-34640733D01*
X105533680Y-34640733D01*
X105673835Y-34873000D01*
X106873000Y-34873000D01*
X106873000Y-33554845D01*
X107127000Y-33554845D01*
X107127000Y-34873000D01*
X107147000Y-34873000D01*
X107147000Y-35127000D01*
X107127000Y-35127000D01*
X107127000Y-36445155D01*
X107356890Y-36566476D01*
X107619858Y-36474352D01*
X107871193Y-36327496D01*
X108089049Y-36134429D01*
X108245538Y-35928278D01*
X108259294Y-35954013D01*
X108444866Y-36180134D01*
X108670986Y-36365706D01*
X108928966Y-36503599D01*
X109208889Y-36588513D01*
X109500000Y-36617185D01*
X109791110Y-36588513D01*
X110071033Y-36503599D01*
X110329013Y-36365706D01*
X110555134Y-36180134D01*
X110607223Y-36116663D01*
X110661595Y-36218386D01*
X110772038Y-36352962D01*
X110906614Y-36463405D01*
X111060150Y-36545472D01*
X111226746Y-36596008D01*
X111400000Y-36613072D01*
X112600000Y-36613072D01*
X112773254Y-36596008D01*
X112939850Y-36545472D01*
X113093386Y-36463405D01*
X113227962Y-36352962D01*
X113338405Y-36218386D01*
X113420472Y-36064850D01*
X113471008Y-35898254D01*
X113488072Y-35725000D01*
X113488072Y-34275000D01*
X113471008Y-34101746D01*
X113420472Y-33935150D01*
X113338405Y-33781614D01*
X113227962Y-33647038D01*
X113093386Y-33536595D01*
X112939850Y-33454528D01*
X112773254Y-33403992D01*
X112600000Y-33386928D01*
X111400000Y-33386928D01*
X111226746Y-33403992D01*
X111060150Y-33454528D01*
X110906614Y-33536595D01*
X110772038Y-33647038D01*
X110661595Y-33781614D01*
X110607223Y-33883337D01*
X110555134Y-33819866D01*
X110329014Y-33634294D01*
X110071034Y-33496401D01*
X109791111Y-33411487D01*
X109500000Y-33382815D01*
X109208890Y-33411487D01*
X108928967Y-33496401D01*
X108670987Y-33634294D01*
X108444866Y-33819866D01*
X108259294Y-34045986D01*
X108245538Y-34071722D01*
X108089049Y-33865571D01*
X107871193Y-33672504D01*
X107619858Y-33525648D01*
X107356890Y-33433524D01*
X107127000Y-33554845D01*
X106873000Y-33554845D01*
X106643110Y-33433524D01*
X106380142Y-33525648D01*
X106128807Y-33672504D01*
X105910951Y-33865571D01*
X105734947Y-34097430D01*
X105607558Y-34359170D01*
X105533680Y-34640733D01*
X95488072Y-34640733D01*
X95488072Y-34275000D01*
X95471008Y-34101746D01*
X95420472Y-33935150D01*
X95338405Y-33781614D01*
X95227962Y-33647038D01*
X95093386Y-33536595D01*
X94939850Y-33454528D01*
X94773254Y-33403992D01*
X94600000Y-33386928D01*
X93400000Y-33386928D01*
X93226746Y-33403992D01*
X93060150Y-33454528D01*
X92906614Y-33536595D01*
X92772038Y-33647038D01*
X92661595Y-33781614D01*
X92607223Y-33883337D01*
X92555134Y-33819866D01*
X92329014Y-33634294D01*
X92071034Y-33496401D01*
X91791111Y-33411487D01*
X91500000Y-33382815D01*
X91208890Y-33411487D01*
X90928967Y-33496401D01*
X90670987Y-33634294D01*
X90444866Y-33819866D01*
X90259294Y-34045986D01*
X90245538Y-34071722D01*
X90089049Y-33865571D01*
X89871193Y-33672504D01*
X89619858Y-33525648D01*
X89356890Y-33433524D01*
X89127000Y-33554845D01*
X88873000Y-33554845D01*
X88643110Y-33433524D01*
X88380142Y-33525648D01*
X88128807Y-33672504D01*
X87910951Y-33865571D01*
X87734947Y-34097430D01*
X87607558Y-34359170D01*
X87533680Y-34640733D01*
X76660000Y-34640733D01*
X76660000Y-30376403D01*
X76874061Y-30590464D01*
X77420285Y-30955439D01*
X78027216Y-31206838D01*
X78671531Y-31335000D01*
X79328469Y-31335000D01*
X79972784Y-31206838D01*
X80579715Y-30955439D01*
X81125939Y-30590464D01*
X81590464Y-30125939D01*
X81955439Y-29579715D01*
X82206838Y-28972784D01*
X82335000Y-28328469D01*
X82335000Y-27671531D01*
X82206838Y-27027216D01*
X81955439Y-26420285D01*
X81590464Y-25874061D01*
X81376403Y-25660000D01*
X117623597Y-25660000D01*
X117409536Y-25874061D01*
X117409536Y-25874061D01*
G37*
X117409536Y-25874061D02*
X117044561Y-26420285D01*
X116793162Y-27027216D01*
X116665000Y-27671531D01*
X116665000Y-28328469D01*
X116793162Y-28972784D01*
X117044561Y-29579715D01*
X117409536Y-30125939D01*
X117874061Y-30590464D01*
X118420285Y-30955439D01*
X119027216Y-31206838D01*
X119671531Y-31335000D01*
X120328469Y-31335000D01*
X120972784Y-31206838D01*
X121579715Y-30955439D01*
X122125939Y-30590464D01*
X122590464Y-30125939D01*
X122955439Y-29579715D01*
X123206838Y-28972784D01*
X123335000Y-28328469D01*
X123335000Y-27671531D01*
X123206838Y-27027216D01*
X122955439Y-26420285D01*
X122590464Y-25874061D01*
X122376403Y-25660000D01*
X123340001Y-25660000D01*
X123340000Y-104485485D01*
X123303603Y-104383708D01*
X123236671Y-104258486D01*
X122992702Y-104186903D01*
X122179605Y-105000000D01*
X122992702Y-105813097D01*
X123236671Y-105741514D01*
X123340000Y-105523138D01*
X123340000Y-119340000D01*
X76660000Y-119340000D01*
X76660000Y-118376403D01*
X76874061Y-118590464D01*
X77420285Y-118955439D01*
X78027216Y-119206838D01*
X78671531Y-119335000D01*
X79328469Y-119335000D01*
X79972784Y-119206838D01*
X80579715Y-118955439D01*
X81125939Y-118590464D01*
X81590464Y-118125939D01*
X81955439Y-117579715D01*
X82206838Y-116972784D01*
X82335000Y-116328469D01*
X82335000Y-115671531D01*
X116665000Y-115671531D01*
X116665000Y-116328469D01*
X116793162Y-116972784D01*
X117044561Y-117579715D01*
X117409536Y-118125939D01*
X117874061Y-118590464D01*
X118420285Y-118955439D01*
X119027216Y-119206838D01*
X119671531Y-119335000D01*
X120328469Y-119335000D01*
X120972784Y-119206838D01*
X121579715Y-118955439D01*
X122125939Y-118590464D01*
X122590464Y-118125939D01*
X122955439Y-117579715D01*
X123206838Y-116972784D01*
X123335000Y-116328469D01*
X123335000Y-115671531D01*
X123206838Y-115027216D01*
X122955439Y-114420285D01*
X122590464Y-113874061D01*
X122125939Y-113409536D01*
X121579715Y-113044561D01*
X120972784Y-112793162D01*
X120328469Y-112665000D01*
X119671531Y-112665000D01*
X119027216Y-112793162D01*
X118420285Y-113044561D01*
X117874061Y-113409536D01*
X117409536Y-113874061D01*
X117044561Y-114420285D01*
X116793162Y-115027216D01*
X116665000Y-115671531D01*
X82335000Y-115671531D01*
X82206838Y-115027216D01*
X81955439Y-114420285D01*
X81590464Y-113874061D01*
X81125939Y-113409536D01*
X80579715Y-113044561D01*
X79972784Y-112793162D01*
X79328469Y-112665000D01*
X78671531Y-112665000D01*
X78027216Y-112793162D01*
X77420285Y-113044561D01*
X76874061Y-113409536D01*
X76660000Y-113623597D01*
X76660000Y-109250000D01*
X84511928Y-109250000D01*
X84511928Y-110750000D01*
X84528992Y-110923254D01*
X84579528Y-111089850D01*
X84661595Y-111243386D01*
X84772038Y-111377962D01*
X84906614Y-111488405D01*
X85060150Y-111570472D01*
X85226746Y-111621008D01*
X85400000Y-111638072D01*
X86600000Y-111638072D01*
X86773254Y-111621008D01*
X86939850Y-111570472D01*
X87093386Y-111488405D01*
X87227962Y-111377962D01*
X87338405Y-111243386D01*
X87392777Y-111141663D01*
X87444866Y-111205134D01*
X87670987Y-111390706D01*
X87928967Y-111528599D01*
X88208890Y-111613513D01*
X88500000Y-111642185D01*
X88791111Y-111613513D01*
X89071034Y-111528599D01*
X89329014Y-111390706D01*
X89555134Y-111205134D01*
X89740706Y-110979014D01*
X89878599Y-110721033D01*
X89963513Y-110441110D01*
X89985000Y-110222949D01*
X89985000Y-109777050D01*
X89963513Y-109558889D01*
X89878599Y-109278966D01*
X89740706Y-109020986D01*
X89555134Y-108794866D01*
X89329013Y-108609294D01*
X89071033Y-108471401D01*
X88791110Y-108386487D01*
X88500000Y-108357815D01*
X88208889Y-108386487D01*
X87928966Y-108471401D01*
X87670986Y-108609294D01*
X87444866Y-108794866D01*
X87392777Y-108858337D01*
X87338405Y-108756614D01*
X87227962Y-108622038D01*
X87093386Y-108511595D01*
X86939850Y-108429528D01*
X86773254Y-108378992D01*
X86600000Y-108361928D01*
X85400000Y-108361928D01*
X85226746Y-108378992D01*
X85060150Y-108429528D01*
X84906614Y-108511595D01*
X84772038Y-108622038D01*
X84661595Y-108756614D01*
X84579528Y-108910150D01*
X84528992Y-109076746D01*
X84511928Y-109250000D01*
X76660000Y-109250000D01*
X76660000Y-107449999D01*
X103321928Y-107449999D01*
X103321928Y-110550001D01*
X103338992Y-110723255D01*
X103389528Y-110889851D01*
X103471595Y-111043387D01*
X103582038Y-111177962D01*
X103716613Y-111288405D01*
X103870149Y-111370472D01*
X104036745Y-111421008D01*
X104209999Y-111438072D01*
X105790001Y-111438072D01*
X105963255Y-111421008D01*
X106129851Y-111370472D01*
X106283387Y-111288405D01*
X106417962Y-111177962D01*
X106528405Y-111043387D01*
X106610472Y-110889851D01*
X106661008Y-110723255D01*
X106678072Y-110550001D01*
X106678072Y-109127000D01*
X108405000Y-109127000D01*
X108405000Y-109887000D01*
X108461961Y-110211336D01*
X108581102Y-110518327D01*
X108757845Y-110796176D01*
X108985398Y-111034206D01*
X109255016Y-111223269D01*
X109556337Y-111356099D01*
X109693290Y-111389748D01*
X109953000Y-111270922D01*
X109953000Y-109127000D01*
X110207000Y-109127000D01*
X110207000Y-111270922D01*
X110466710Y-111389748D01*
X110603663Y-111356099D01*
X110904984Y-111223269D01*
X111174602Y-111034206D01*
X111402155Y-110796176D01*
X111578898Y-110518327D01*
X111698039Y-110211336D01*
X111755000Y-109887000D01*
X111755000Y-109127000D01*
X110207000Y-109127000D01*
X109953000Y-109127000D01*
X108405000Y-109127000D01*
X106678072Y-109127000D01*
X106678072Y-108113000D01*
X108405000Y-108113000D01*
X108405000Y-108873000D01*
X109953000Y-108873000D01*
X109953000Y-106729078D01*
X110207000Y-106729078D01*
X110207000Y-108873000D01*
X111755000Y-108873000D01*
X111755000Y-108113000D01*
X111698039Y-107788664D01*
X111578898Y-107481673D01*
X111402155Y-107203824D01*
X111174602Y-106965794D01*
X110904984Y-106776731D01*
X110603663Y-106643901D01*
X110466710Y-106610252D01*
X110207000Y-106729078D01*
X109953000Y-106729078D01*
X109693290Y-106610252D01*
X109556337Y-106643901D01*
X109255016Y-106776731D01*
X108985398Y-106965794D01*
X108757845Y-107203824D01*
X108581102Y-107481673D01*
X108461961Y-107788664D01*
X108405000Y-108113000D01*
X106678072Y-108113000D01*
X106678072Y-107449999D01*
X106661008Y-107276745D01*
X106610472Y-107110149D01*
X106528405Y-106956613D01*
X106417962Y-106822038D01*
X106283387Y-106711595D01*
X106129851Y-106629528D01*
X105963255Y-106578992D01*
X105790001Y-106561928D01*
X104209999Y-106561928D01*
X104036745Y-106578992D01*
X103870149Y-106629528D01*
X103716613Y-106711595D01*
X103582038Y-106822038D01*
X103471595Y-106956613D01*
X103389528Y-107110149D01*
X103338992Y-107276745D01*
X103321928Y-107449999D01*
X76660000Y-107449999D01*
X76660000Y-104200000D01*
X115561928Y-104200000D01*
X115561928Y-105800000D01*
X115574188Y-105924482D01*
X115610498Y-106044180D01*
X115669463Y-106154494D01*
X115748815Y-106251185D01*
X115845506Y-106330537D01*
X115955820Y-106389502D01*
X116075518Y-106425812D01*
X116200000Y-106438072D01*
X117800000Y-106438072D01*
X117924482Y-106425812D01*
X118044180Y-106389502D01*
X118154494Y-106330537D01*
X118251185Y-106251185D01*
X118330537Y-106154494D01*
X118389502Y-106044180D01*
X118405117Y-105992702D01*
X121186903Y-105992702D01*
X121258486Y-106236671D01*
X121513996Y-106357571D01*
X121788184Y-106426300D01*
X122070512Y-106440217D01*
X122350130Y-106398787D01*
X122616292Y-106303603D01*
X122741514Y-106236671D01*
X122813097Y-105992702D01*
X122000000Y-105179605D01*
X121186903Y-105992702D01*
X118405117Y-105992702D01*
X118425812Y-105924482D01*
X118438072Y-105800000D01*
X118438072Y-105070512D01*
X120559783Y-105070512D01*
X120601213Y-105350130D01*
X120696397Y-105616292D01*
X120763329Y-105741514D01*
X121007298Y-105813097D01*
X121820395Y-105000000D01*
X121007298Y-104186903D01*
X120763329Y-104258486D01*
X120642429Y-104513996D01*
X120573700Y-104788184D01*
X120559783Y-105070512D01*
X118438072Y-105070512D01*
X118438072Y-104200000D01*
X118425812Y-104075518D01*
X118405118Y-104007298D01*
X121186903Y-104007298D01*
X122000000Y-104820395D01*
X122813097Y-104007298D01*
X122741514Y-103763329D01*
X122486004Y-103642429D01*
X122211816Y-103573700D01*
X121929488Y-103559783D01*
X121649870Y-103601213D01*
X121383708Y-103696397D01*
X121258486Y-103763329D01*
X121186903Y-104007298D01*
X118405118Y-104007298D01*
X118389502Y-103955820D01*
X118330537Y-103845506D01*
X118251185Y-103748815D01*
X118154494Y-103669463D01*
X118044180Y-103610498D01*
X117924482Y-103574188D01*
X117800000Y-103561928D01*
X116200000Y-103561928D01*
X116075518Y-103574188D01*
X115955820Y-103610498D01*
X115845506Y-103669463D01*
X115748815Y-103748815D01*
X115669463Y-103845506D01*
X115610498Y-103955820D01*
X115574188Y-104075518D01*
X115561928Y-104200000D01*
X76660000Y-104200000D01*
X76660000Y-95858665D01*
X78565000Y-95858665D01*
X78565000Y-96141335D01*
X78620147Y-96418574D01*
X78728320Y-96679727D01*
X78885363Y-96914759D01*
X79085241Y-97114637D01*
X79320273Y-97271680D01*
X79581426Y-97379853D01*
X79858665Y-97435000D01*
X80141335Y-97435000D01*
X80418574Y-97379853D01*
X80679727Y-97271680D01*
X80914759Y-97114637D01*
X81114637Y-96914759D01*
X81271680Y-96679727D01*
X81379853Y-96418574D01*
X81435000Y-96141335D01*
X81435000Y-95858665D01*
X81428017Y-95823562D01*
X81456531Y-95795048D01*
X81456535Y-95795043D01*
X81609170Y-95642408D01*
X84633000Y-95642408D01*
X84633000Y-95917592D01*
X84686686Y-96187490D01*
X84791995Y-96441727D01*
X84944880Y-96670535D01*
X85139465Y-96865120D01*
X85368273Y-97018005D01*
X85622510Y-97123314D01*
X85892408Y-97177000D01*
X86167592Y-97177000D01*
X86437490Y-97123314D01*
X86691727Y-97018005D01*
X86920535Y-96865120D01*
X87115120Y-96670535D01*
X87268005Y-96441727D01*
X87373314Y-96187490D01*
X87427000Y-95917592D01*
X87427000Y-95642408D01*
X112573000Y-95642408D01*
X112573000Y-95917592D01*
X112626686Y-96187490D01*
X112731995Y-96441727D01*
X112884880Y-96670535D01*
X113079465Y-96865120D01*
X113308273Y-97018005D01*
X113562510Y-97123314D01*
X113832408Y-97177000D01*
X114107592Y-97177000D01*
X114377490Y-97123314D01*
X114631727Y-97018005D01*
X114860535Y-96865120D01*
X115055120Y-96670535D01*
X115208005Y-96441727D01*
X115313314Y-96187490D01*
X115367000Y-95917592D01*
X115367000Y-95642408D01*
X115313314Y-95372510D01*
X115208005Y-95118273D01*
X115055120Y-94889465D01*
X114860535Y-94694880D01*
X114631727Y-94541995D01*
X114560057Y-94512308D01*
X114573023Y-94507636D01*
X114688980Y-94445656D01*
X114755960Y-94205565D01*
X113970000Y-93419605D01*
X113184040Y-94205565D01*
X113251020Y-94445656D01*
X113386760Y-94509485D01*
X113308273Y-94541995D01*
X113079465Y-94694880D01*
X112884880Y-94889465D01*
X112731995Y-95118273D01*
X112626686Y-95372510D01*
X112573000Y-95642408D01*
X87427000Y-95642408D01*
X87373314Y-95372510D01*
X87268005Y-95118273D01*
X87115120Y-94889465D01*
X86920535Y-94694880D01*
X86691727Y-94541995D01*
X86620057Y-94512308D01*
X86633023Y-94507636D01*
X86748980Y-94445656D01*
X86815960Y-94205565D01*
X86030000Y-93419605D01*
X85244040Y-94205565D01*
X85311020Y-94445656D01*
X85446760Y-94509485D01*
X85368273Y-94541995D01*
X85139465Y-94694880D01*
X84944880Y-94889465D01*
X84791995Y-95118273D01*
X84686686Y-95372510D01*
X84633000Y-95642408D01*
X81609170Y-95642408D01*
X84454578Y-92797001D01*
X84700557Y-92797001D01*
X84640977Y-93037135D01*
X84628090Y-93312017D01*
X84669078Y-93584133D01*
X84762364Y-93843023D01*
X84824344Y-93958980D01*
X85064435Y-94025960D01*
X85850395Y-93240000D01*
X85836253Y-93225858D01*
X86015858Y-93046253D01*
X86030000Y-93060395D01*
X86044143Y-93046253D01*
X86223748Y-93225858D01*
X86209605Y-93240000D01*
X86995565Y-94025960D01*
X87235656Y-93958980D01*
X87352756Y-93709952D01*
X87419023Y-93442865D01*
X87425157Y-93312017D01*
X112568090Y-93312017D01*
X112609078Y-93584133D01*
X112702364Y-93843023D01*
X112764344Y-93958980D01*
X113004435Y-94025960D01*
X113790395Y-93240000D01*
X114149605Y-93240000D01*
X114935565Y-94025960D01*
X115175656Y-93958980D01*
X115292756Y-93709952D01*
X115359023Y-93442865D01*
X115371910Y-93167983D01*
X115330922Y-92895867D01*
X115237636Y-92636977D01*
X115175656Y-92521020D01*
X114935565Y-92454040D01*
X114149605Y-93240000D01*
X113790395Y-93240000D01*
X113004435Y-92454040D01*
X112764344Y-92521020D01*
X112647244Y-92770048D01*
X112580977Y-93037135D01*
X112568090Y-93312017D01*
X87425157Y-93312017D01*
X87431910Y-93167983D01*
X87390922Y-92895867D01*
X87355298Y-92797001D01*
X102554530Y-92797001D01*
X102597999Y-92801282D01*
X102641468Y-92797001D01*
X102641476Y-92797001D01*
X102771489Y-92784196D01*
X102938312Y-92733590D01*
X103092058Y-92651412D01*
X103226816Y-92540818D01*
X103254533Y-92507045D01*
X112573000Y-83188579D01*
X112573000Y-83217592D01*
X112626686Y-83487490D01*
X112731995Y-83741727D01*
X112884880Y-83970535D01*
X113079465Y-84165120D01*
X113308273Y-84318005D01*
X113385515Y-84350000D01*
X113308273Y-84381995D01*
X113079465Y-84534880D01*
X112884880Y-84729465D01*
X112731995Y-84958273D01*
X112626686Y-85212510D01*
X112573000Y-85482408D01*
X112573000Y-85757592D01*
X112626686Y-86027490D01*
X112731995Y-86281727D01*
X112884880Y-86510535D01*
X113079465Y-86705120D01*
X113308273Y-86858005D01*
X113385515Y-86890000D01*
X113308273Y-86921995D01*
X113079465Y-87074880D01*
X112884880Y-87269465D01*
X112731995Y-87498273D01*
X112626686Y-87752510D01*
X112573000Y-88022408D01*
X112573000Y-88297592D01*
X112626686Y-88567490D01*
X112731995Y-88821727D01*
X112884880Y-89050535D01*
X113079465Y-89245120D01*
X113308273Y-89398005D01*
X113385515Y-89430000D01*
X113308273Y-89461995D01*
X113079465Y-89614880D01*
X112884880Y-89809465D01*
X112731995Y-90038273D01*
X112626686Y-90292510D01*
X112573000Y-90562408D01*
X112573000Y-90837592D01*
X112626686Y-91107490D01*
X112731995Y-91361727D01*
X112884880Y-91590535D01*
X113079465Y-91785120D01*
X113308273Y-91938005D01*
X113379943Y-91967692D01*
X113366977Y-91972364D01*
X113251020Y-92034344D01*
X113184040Y-92274435D01*
X113970000Y-93060395D01*
X114755960Y-92274435D01*
X114688980Y-92034344D01*
X114553240Y-91970515D01*
X114631727Y-91938005D01*
X114860535Y-91785120D01*
X115055120Y-91590535D01*
X115208005Y-91361727D01*
X115313314Y-91107490D01*
X115367000Y-90837592D01*
X115367000Y-90562408D01*
X115313314Y-90292510D01*
X115208005Y-90038273D01*
X115055120Y-89809465D01*
X114860535Y-89614880D01*
X114631727Y-89461995D01*
X114554485Y-89430000D01*
X114631727Y-89398005D01*
X114860535Y-89245120D01*
X115055120Y-89050535D01*
X115208005Y-88821727D01*
X115313314Y-88567490D01*
X115367000Y-88297592D01*
X115367000Y-88022408D01*
X115313314Y-87752510D01*
X115208005Y-87498273D01*
X115055120Y-87269465D01*
X114860535Y-87074880D01*
X114631727Y-86921995D01*
X114554485Y-86890000D01*
X114631727Y-86858005D01*
X114860535Y-86705120D01*
X115055120Y-86510535D01*
X115208005Y-86281727D01*
X115313314Y-86027490D01*
X115367000Y-85757592D01*
X115367000Y-85482408D01*
X115313314Y-85212510D01*
X115208005Y-84958273D01*
X115055120Y-84729465D01*
X114860535Y-84534880D01*
X114631727Y-84381995D01*
X114554485Y-84350000D01*
X114631727Y-84318005D01*
X114860535Y-84165120D01*
X115055120Y-83970535D01*
X115208005Y-83741727D01*
X115313314Y-83487490D01*
X115367000Y-83217592D01*
X115367000Y-82942408D01*
X115313314Y-82672510D01*
X115208005Y-82418273D01*
X115055120Y-82189465D01*
X114860535Y-81994880D01*
X114631727Y-81841995D01*
X114554485Y-81810000D01*
X114631727Y-81778005D01*
X114860535Y-81625120D01*
X115055120Y-81430535D01*
X115208005Y-81201727D01*
X115313314Y-80947490D01*
X115367000Y-80677592D01*
X115367000Y-80402408D01*
X115313314Y-80132510D01*
X115208005Y-79878273D01*
X115055120Y-79649465D01*
X114860535Y-79454880D01*
X114631727Y-79301995D01*
X114554485Y-79270000D01*
X114631727Y-79238005D01*
X114860535Y-79085120D01*
X115055120Y-78890535D01*
X115208005Y-78661727D01*
X115313314Y-78407490D01*
X115367000Y-78137592D01*
X115367000Y-77862408D01*
X115313314Y-77592510D01*
X115208005Y-77338273D01*
X115055120Y-77109465D01*
X114860535Y-76914880D01*
X114631727Y-76761995D01*
X114560057Y-76732308D01*
X114573023Y-76727636D01*
X114688980Y-76665656D01*
X114755960Y-76425565D01*
X113970000Y-75639605D01*
X113184040Y-76425565D01*
X113251020Y-76665656D01*
X113386760Y-76729485D01*
X113308273Y-76761995D01*
X113079465Y-76914880D01*
X112884880Y-77109465D01*
X112731995Y-77338273D01*
X112626686Y-77592510D01*
X112573000Y-77862408D01*
X112573000Y-78137592D01*
X112626686Y-78407490D01*
X112731995Y-78661727D01*
X112884880Y-78890535D01*
X113079465Y-79085120D01*
X113308273Y-79238005D01*
X113385515Y-79270000D01*
X113308273Y-79301995D01*
X113079465Y-79454880D01*
X112884880Y-79649465D01*
X112731995Y-79878273D01*
X112626686Y-80132510D01*
X112573000Y-80402408D01*
X112573000Y-80677592D01*
X112574299Y-80684122D01*
X102231421Y-91027001D01*
X87389324Y-91027001D01*
X87427000Y-90837592D01*
X87427000Y-90562408D01*
X87373314Y-90292510D01*
X87268005Y-90038273D01*
X87115120Y-89809465D01*
X86920535Y-89614880D01*
X86691727Y-89461995D01*
X86614485Y-89430000D01*
X86691727Y-89398005D01*
X86920535Y-89245120D01*
X87115120Y-89050535D01*
X87268005Y-88821727D01*
X87373314Y-88567490D01*
X87427000Y-88297592D01*
X87427000Y-88022408D01*
X87373314Y-87752510D01*
X87268005Y-87498273D01*
X87115120Y-87269465D01*
X86920535Y-87074880D01*
X86691727Y-86921995D01*
X86614485Y-86890000D01*
X86691727Y-86858005D01*
X86920535Y-86705120D01*
X87115120Y-86510535D01*
X87268005Y-86281727D01*
X87373314Y-86027490D01*
X87427000Y-85757592D01*
X87427000Y-85482408D01*
X87373314Y-85212510D01*
X87268005Y-84958273D01*
X87115120Y-84729465D01*
X86920535Y-84534880D01*
X86691727Y-84381995D01*
X86620057Y-84352308D01*
X86633023Y-84347636D01*
X86748980Y-84285656D01*
X86815960Y-84045565D01*
X86030000Y-83259605D01*
X85244040Y-84045565D01*
X85311020Y-84285656D01*
X85446760Y-84349485D01*
X85368273Y-84381995D01*
X85139465Y-84534880D01*
X84944880Y-84729465D01*
X84791995Y-84958273D01*
X84686686Y-85212510D01*
X84633000Y-85482408D01*
X84633000Y-85757592D01*
X84686686Y-86027490D01*
X84791995Y-86281727D01*
X84944880Y-86510535D01*
X85139465Y-86705120D01*
X85368273Y-86858005D01*
X85445515Y-86890000D01*
X85368273Y-86921995D01*
X85139465Y-87074880D01*
X84944880Y-87269465D01*
X84791995Y-87498273D01*
X84686686Y-87752510D01*
X84633000Y-88022408D01*
X84633000Y-88297592D01*
X84686686Y-88567490D01*
X84791995Y-88821727D01*
X84944880Y-89050535D01*
X85139465Y-89245120D01*
X85368273Y-89398005D01*
X85445515Y-89430000D01*
X85368273Y-89461995D01*
X85139465Y-89614880D01*
X84944880Y-89809465D01*
X84791995Y-90038273D01*
X84686686Y-90292510D01*
X84633000Y-90562408D01*
X84633000Y-90837592D01*
X84670676Y-91027001D01*
X84131464Y-91027001D01*
X84087998Y-91022720D01*
X84044532Y-91027001D01*
X84044522Y-91027001D01*
X83914509Y-91039806D01*
X83747686Y-91090412D01*
X83593940Y-91172590D01*
X83593938Y-91172591D01*
X83593939Y-91172591D01*
X83492952Y-91255469D01*
X83492950Y-91255471D01*
X83459182Y-91283184D01*
X83431469Y-91316952D01*
X80204957Y-94543465D01*
X80204952Y-94543469D01*
X80176438Y-94571983D01*
X80141335Y-94565000D01*
X79858665Y-94565000D01*
X79581426Y-94620147D01*
X79320273Y-94728320D01*
X79085241Y-94885363D01*
X78885363Y-95085241D01*
X78728320Y-95320273D01*
X78620147Y-95581426D01*
X78565000Y-95858665D01*
X76660000Y-95858665D01*
X76660000Y-86189040D01*
X78608091Y-86189040D01*
X78702930Y-86453881D01*
X78847615Y-86695131D01*
X79036586Y-86903519D01*
X79262580Y-87071037D01*
X79516913Y-87191246D01*
X79650961Y-87231904D01*
X79873000Y-87109915D01*
X79873000Y-85967000D01*
X80127000Y-85967000D01*
X80127000Y-87109915D01*
X80349039Y-87231904D01*
X80483087Y-87191246D01*
X80737420Y-87071037D01*
X80963414Y-86903519D01*
X81152385Y-86695131D01*
X81297070Y-86453881D01*
X81391909Y-86189040D01*
X81270624Y-85967000D01*
X80127000Y-85967000D01*
X79873000Y-85967000D01*
X78729376Y-85967000D01*
X78608091Y-86189040D01*
X76660000Y-86189040D01*
X76660000Y-85490960D01*
X78608091Y-85490960D01*
X78729376Y-85713000D01*
X79873000Y-85713000D01*
X79873000Y-84570085D01*
X80127000Y-84570085D01*
X80127000Y-85713000D01*
X81270624Y-85713000D01*
X81391909Y-85490960D01*
X81297070Y-85226119D01*
X81152385Y-84984869D01*
X80963414Y-84776481D01*
X80737420Y-84608963D01*
X80483087Y-84488754D01*
X80349039Y-84448096D01*
X80127000Y-84570085D01*
X79873000Y-84570085D01*
X79650961Y-84448096D01*
X79516913Y-84488754D01*
X79262580Y-84608963D01*
X79036586Y-84776481D01*
X78847615Y-84984869D01*
X78702930Y-85226119D01*
X78608091Y-85490960D01*
X76660000Y-85490960D01*
X76660000Y-83152017D01*
X84628090Y-83152017D01*
X84669078Y-83424133D01*
X84762364Y-83683023D01*
X84824344Y-83798980D01*
X85064435Y-83865960D01*
X85850395Y-83080000D01*
X86209605Y-83080000D01*
X86995565Y-83865960D01*
X87235656Y-83798980D01*
X87352756Y-83549952D01*
X87419023Y-83282865D01*
X87431910Y-83007983D01*
X87390922Y-82735867D01*
X87297636Y-82476977D01*
X87235656Y-82361020D01*
X86995565Y-82294040D01*
X86209605Y-83080000D01*
X85850395Y-83080000D01*
X85064435Y-82294040D01*
X84824344Y-82361020D01*
X84707244Y-82610048D01*
X84640977Y-82877135D01*
X84628090Y-83152017D01*
X76660000Y-83152017D01*
X76660000Y-60082408D01*
X84633000Y-60082408D01*
X84633000Y-60357592D01*
X84686686Y-60627490D01*
X84791995Y-60881727D01*
X84944880Y-61110535D01*
X85139465Y-61305120D01*
X85368273Y-61458005D01*
X85445515Y-61490000D01*
X85368273Y-61521995D01*
X85139465Y-61674880D01*
X84944880Y-61869465D01*
X84791995Y-62098273D01*
X84686686Y-62352510D01*
X84633000Y-62622408D01*
X84633000Y-62897592D01*
X84686686Y-63167490D01*
X84791995Y-63421727D01*
X84944880Y-63650535D01*
X85139465Y-63845120D01*
X85368273Y-63998005D01*
X85445515Y-64030000D01*
X85368273Y-64061995D01*
X85139465Y-64214880D01*
X84944880Y-64409465D01*
X84791995Y-64638273D01*
X84686686Y-64892510D01*
X84633000Y-65162408D01*
X84633000Y-65437592D01*
X84686686Y-65707490D01*
X84791995Y-65961727D01*
X84944880Y-66190535D01*
X85139465Y-66385120D01*
X85368273Y-66538005D01*
X85445515Y-66570000D01*
X85368273Y-66601995D01*
X85139465Y-66754880D01*
X84944880Y-66949465D01*
X84791995Y-67178273D01*
X84686686Y-67432510D01*
X84633000Y-67702408D01*
X84633000Y-67977592D01*
X84686686Y-68247490D01*
X84791995Y-68501727D01*
X84944880Y-68730535D01*
X85139465Y-68925120D01*
X85368273Y-69078005D01*
X85445515Y-69110000D01*
X85368273Y-69141995D01*
X85139465Y-69294880D01*
X84944880Y-69489465D01*
X84791995Y-69718273D01*
X84686686Y-69972510D01*
X84633000Y-70242408D01*
X84633000Y-70517592D01*
X84686686Y-70787490D01*
X84791995Y-71041727D01*
X84944880Y-71270535D01*
X85139465Y-71465120D01*
X85368273Y-71618005D01*
X85445515Y-71650000D01*
X85368273Y-71681995D01*
X85139465Y-71834880D01*
X84944880Y-72029465D01*
X84791995Y-72258273D01*
X84686686Y-72512510D01*
X84633000Y-72782408D01*
X84633000Y-73057592D01*
X84686686Y-73327490D01*
X84791995Y-73581727D01*
X84944880Y-73810535D01*
X85139465Y-74005120D01*
X85368273Y-74158005D01*
X85445515Y-74190000D01*
X85368273Y-74221995D01*
X85139465Y-74374880D01*
X84944880Y-74569465D01*
X84791995Y-74798273D01*
X84686686Y-75052510D01*
X84633000Y-75322408D01*
X84633000Y-75597592D01*
X84686686Y-75867490D01*
X84791995Y-76121727D01*
X84944880Y-76350535D01*
X85139465Y-76545120D01*
X85368273Y-76698005D01*
X85445515Y-76730000D01*
X85368273Y-76761995D01*
X85139465Y-76914880D01*
X84944880Y-77109465D01*
X84791995Y-77338273D01*
X84686686Y-77592510D01*
X84633000Y-77862408D01*
X84633000Y-78137592D01*
X84686686Y-78407490D01*
X84791995Y-78661727D01*
X84944880Y-78890535D01*
X85139465Y-79085120D01*
X85368273Y-79238005D01*
X85445515Y-79270000D01*
X85368273Y-79301995D01*
X85139465Y-79454880D01*
X84944880Y-79649465D01*
X84791995Y-79878273D01*
X84686686Y-80132510D01*
X84633000Y-80402408D01*
X84633000Y-80677592D01*
X84686686Y-80947490D01*
X84791995Y-81201727D01*
X84944880Y-81430535D01*
X85139465Y-81625120D01*
X85368273Y-81778005D01*
X85439943Y-81807692D01*
X85426977Y-81812364D01*
X85311020Y-81874344D01*
X85244040Y-82114435D01*
X86030000Y-82900395D01*
X86815960Y-82114435D01*
X86748980Y-81874344D01*
X86613240Y-81810515D01*
X86691727Y-81778005D01*
X86920535Y-81625120D01*
X87115120Y-81430535D01*
X87268005Y-81201727D01*
X87373314Y-80947490D01*
X87427000Y-80677592D01*
X87427000Y-80402408D01*
X87373314Y-80132510D01*
X87268005Y-79878273D01*
X87115120Y-79649465D01*
X86920535Y-79454880D01*
X86691727Y-79301995D01*
X86614485Y-79270000D01*
X86691727Y-79238005D01*
X86920535Y-79085120D01*
X87115120Y-78890535D01*
X87268005Y-78661727D01*
X87373314Y-78407490D01*
X87427000Y-78137592D01*
X87427000Y-77862408D01*
X87373314Y-77592510D01*
X87268005Y-77338273D01*
X87115120Y-77109465D01*
X86920535Y-76914880D01*
X86691727Y-76761995D01*
X86614485Y-76730000D01*
X86691727Y-76698005D01*
X86920535Y-76545120D01*
X87115120Y-76350535D01*
X87268005Y-76121727D01*
X87373314Y-75867490D01*
X87427000Y-75597592D01*
X87427000Y-75532017D01*
X112568090Y-75532017D01*
X112609078Y-75804133D01*
X112702364Y-76063023D01*
X112764344Y-76178980D01*
X113004435Y-76245960D01*
X113790395Y-75460000D01*
X114149605Y-75460000D01*
X114935565Y-76245960D01*
X115175656Y-76178980D01*
X115292756Y-75929952D01*
X115359023Y-75662865D01*
X115371910Y-75387983D01*
X115330922Y-75115867D01*
X115237636Y-74856977D01*
X115175656Y-74741020D01*
X114935565Y-74674040D01*
X114149605Y-75460000D01*
X113790395Y-75460000D01*
X113004435Y-74674040D01*
X112764344Y-74741020D01*
X112647244Y-74990048D01*
X112580977Y-75257135D01*
X112568090Y-75532017D01*
X87427000Y-75532017D01*
X87427000Y-75322408D01*
X87373314Y-75052510D01*
X87268005Y-74798273D01*
X87115120Y-74569465D01*
X86920535Y-74374880D01*
X86691727Y-74221995D01*
X86614485Y-74190000D01*
X86691727Y-74158005D01*
X86920535Y-74005120D01*
X87115120Y-73810535D01*
X87268005Y-73581727D01*
X87373314Y-73327490D01*
X87427000Y-73057592D01*
X87427000Y-72782408D01*
X87373314Y-72512510D01*
X87268005Y-72258273D01*
X87115120Y-72029465D01*
X86920535Y-71834880D01*
X86691727Y-71681995D01*
X86614485Y-71650000D01*
X86691727Y-71618005D01*
X86920535Y-71465120D01*
X87115120Y-71270535D01*
X87268005Y-71041727D01*
X87373314Y-70787490D01*
X87427000Y-70517592D01*
X87427000Y-70242408D01*
X87373314Y-69972510D01*
X87268005Y-69718273D01*
X87115120Y-69489465D01*
X86920535Y-69294880D01*
X86691727Y-69141995D01*
X86614485Y-69110000D01*
X86691727Y-69078005D01*
X86920535Y-68925120D01*
X87115120Y-68730535D01*
X87268005Y-68501727D01*
X87373314Y-68247490D01*
X87427000Y-67977592D01*
X87427000Y-67702408D01*
X87373314Y-67432510D01*
X87268005Y-67178273D01*
X87115120Y-66949465D01*
X86920535Y-66754880D01*
X86691727Y-66601995D01*
X86614485Y-66570000D01*
X86691727Y-66538005D01*
X86920535Y-66385120D01*
X87115120Y-66190535D01*
X87268005Y-65961727D01*
X87373314Y-65707490D01*
X87427000Y-65437592D01*
X87427000Y-65162408D01*
X87373314Y-64892510D01*
X87268005Y-64638273D01*
X87115120Y-64409465D01*
X86920535Y-64214880D01*
X86691727Y-64061995D01*
X86614485Y-64030000D01*
X86691727Y-63998005D01*
X86920535Y-63845120D01*
X87115120Y-63650535D01*
X87268005Y-63421727D01*
X87373314Y-63167490D01*
X87427000Y-62897592D01*
X87427000Y-62622408D01*
X87373314Y-62352510D01*
X87268005Y-62098273D01*
X87115120Y-61869465D01*
X86920535Y-61674880D01*
X86691727Y-61521995D01*
X86614485Y-61490000D01*
X86691727Y-61458005D01*
X86920535Y-61305120D01*
X87115120Y-61110535D01*
X87268005Y-60881727D01*
X87373314Y-60627490D01*
X87427000Y-60357592D01*
X87427000Y-60082408D01*
X112573000Y-60082408D01*
X112573000Y-60357592D01*
X112626686Y-60627490D01*
X112731995Y-60881727D01*
X112884880Y-61110535D01*
X113079465Y-61305120D01*
X113308273Y-61458005D01*
X113385515Y-61490000D01*
X113308273Y-61521995D01*
X113079465Y-61674880D01*
X112884880Y-61869465D01*
X112731995Y-62098273D01*
X112626686Y-62352510D01*
X112573000Y-62622408D01*
X112573000Y-62897592D01*
X112626686Y-63167490D01*
X112731995Y-63421727D01*
X112884880Y-63650535D01*
X113079465Y-63845120D01*
X113308273Y-63998005D01*
X113385515Y-64030000D01*
X113308273Y-64061995D01*
X113079465Y-64214880D01*
X112884880Y-64409465D01*
X112731995Y-64638273D01*
X112626686Y-64892510D01*
X112573000Y-65162408D01*
X112573000Y-65437592D01*
X112626686Y-65707490D01*
X112731995Y-65961727D01*
X112884880Y-66190535D01*
X113079465Y-66385120D01*
X113308273Y-66538005D01*
X113385515Y-66570000D01*
X113308273Y-66601995D01*
X113079465Y-66754880D01*
X112884880Y-66949465D01*
X112731995Y-67178273D01*
X112626686Y-67432510D01*
X112573000Y-67702408D01*
X112573000Y-67977592D01*
X112626686Y-68247490D01*
X112731995Y-68501727D01*
X112884880Y-68730535D01*
X113079465Y-68925120D01*
X113308273Y-69078005D01*
X113385515Y-69110000D01*
X113308273Y-69141995D01*
X113079465Y-69294880D01*
X112884880Y-69489465D01*
X112731995Y-69718273D01*
X112626686Y-69972510D01*
X112573000Y-70242408D01*
X112573000Y-70517592D01*
X112626686Y-70787490D01*
X112731995Y-71041727D01*
X112884880Y-71270535D01*
X113079465Y-71465120D01*
X113308273Y-71618005D01*
X113385515Y-71650000D01*
X113308273Y-71681995D01*
X113079465Y-71834880D01*
X112884880Y-72029465D01*
X112731995Y-72258273D01*
X112626686Y-72512510D01*
X112573000Y-72782408D01*
X112573000Y-73057592D01*
X112626686Y-73327490D01*
X112731995Y-73581727D01*
X112884880Y-73810535D01*
X113079465Y-74005120D01*
X113308273Y-74158005D01*
X113379943Y-74187692D01*
X113366977Y-74192364D01*
X113251020Y-74254344D01*
X113184040Y-74494435D01*
X113970000Y-75280395D01*
X114755960Y-74494435D01*
X114688980Y-74254344D01*
X114553240Y-74190515D01*
X114631727Y-74158005D01*
X114860535Y-74005120D01*
X115055120Y-73810535D01*
X115208005Y-73581727D01*
X115238113Y-73509040D01*
X117608091Y-73509040D01*
X117702930Y-73773881D01*
X117847615Y-74015131D01*
X118036586Y-74223519D01*
X118262580Y-74391037D01*
X118516913Y-74511246D01*
X118650961Y-74551904D01*
X118873000Y-74429915D01*
X118873000Y-73287000D01*
X119127000Y-73287000D01*
X119127000Y-74429915D01*
X119349039Y-74551904D01*
X119483087Y-74511246D01*
X119737420Y-74391037D01*
X119963414Y-74223519D01*
X120152385Y-74015131D01*
X120297070Y-73773881D01*
X120391909Y-73509040D01*
X120270624Y-73287000D01*
X119127000Y-73287000D01*
X118873000Y-73287000D01*
X117729376Y-73287000D01*
X117608091Y-73509040D01*
X115238113Y-73509040D01*
X115313314Y-73327490D01*
X115367000Y-73057592D01*
X115367000Y-72810960D01*
X117608091Y-72810960D01*
X117729376Y-73033000D01*
X118873000Y-73033000D01*
X118873000Y-71890085D01*
X119127000Y-71890085D01*
X119127000Y-73033000D01*
X120270624Y-73033000D01*
X120391909Y-72810960D01*
X120297070Y-72546119D01*
X120152385Y-72304869D01*
X119963414Y-72096481D01*
X119737420Y-71928963D01*
X119483087Y-71808754D01*
X119349039Y-71768096D01*
X119127000Y-71890085D01*
X118873000Y-71890085D01*
X118650961Y-71768096D01*
X118516913Y-71808754D01*
X118262580Y-71928963D01*
X118036586Y-72096481D01*
X117847615Y-72304869D01*
X117702930Y-72546119D01*
X117608091Y-72810960D01*
X115367000Y-72810960D01*
X115367000Y-72782408D01*
X115313314Y-72512510D01*
X115208005Y-72258273D01*
X115055120Y-72029465D01*
X114860535Y-71834880D01*
X114631727Y-71681995D01*
X114554485Y-71650000D01*
X114631727Y-71618005D01*
X114860535Y-71465120D01*
X115055120Y-71270535D01*
X115208005Y-71041727D01*
X115313314Y-70787490D01*
X115367000Y-70517592D01*
X115367000Y-70242408D01*
X115313314Y-69972510D01*
X115208005Y-69718273D01*
X115055120Y-69489465D01*
X114860535Y-69294880D01*
X114631727Y-69141995D01*
X114554485Y-69110000D01*
X114631727Y-69078005D01*
X114860535Y-68925120D01*
X115055120Y-68730535D01*
X115208005Y-68501727D01*
X115313314Y-68247490D01*
X115367000Y-67977592D01*
X115367000Y-67702408D01*
X115313314Y-67432510D01*
X115208005Y-67178273D01*
X115055120Y-66949465D01*
X114860535Y-66754880D01*
X114631727Y-66601995D01*
X114554485Y-66570000D01*
X114631727Y-66538005D01*
X114860535Y-66385120D01*
X115055120Y-66190535D01*
X115208005Y-65961727D01*
X115313314Y-65707490D01*
X115367000Y-65437592D01*
X115367000Y-65162408D01*
X115313314Y-64892510D01*
X115208005Y-64638273D01*
X115055120Y-64409465D01*
X114860535Y-64214880D01*
X114631727Y-64061995D01*
X114554485Y-64030000D01*
X114631727Y-63998005D01*
X114860535Y-63845120D01*
X115055120Y-63650535D01*
X115208005Y-63421727D01*
X115313314Y-63167490D01*
X115367000Y-62897592D01*
X115367000Y-62858665D01*
X117565000Y-62858665D01*
X117565000Y-63141335D01*
X117620147Y-63418574D01*
X117728320Y-63679727D01*
X117885363Y-63914759D01*
X118085241Y-64114637D01*
X118320273Y-64271680D01*
X118581426Y-64379853D01*
X118858665Y-64435000D01*
X119141335Y-64435000D01*
X119418574Y-64379853D01*
X119679727Y-64271680D01*
X119914759Y-64114637D01*
X120114637Y-63914759D01*
X120271680Y-63679727D01*
X120379853Y-63418574D01*
X120435000Y-63141335D01*
X120435000Y-62858665D01*
X120379853Y-62581426D01*
X120271680Y-62320273D01*
X120114637Y-62085241D01*
X119914759Y-61885363D01*
X119679727Y-61728320D01*
X119418574Y-61620147D01*
X119141335Y-61565000D01*
X118858665Y-61565000D01*
X118581426Y-61620147D01*
X118320273Y-61728320D01*
X118085241Y-61885363D01*
X117885363Y-62085241D01*
X117728320Y-62320273D01*
X117620147Y-62581426D01*
X117565000Y-62858665D01*
X115367000Y-62858665D01*
X115367000Y-62622408D01*
X115313314Y-62352510D01*
X115208005Y-62098273D01*
X115055120Y-61869465D01*
X114860535Y-61674880D01*
X114631727Y-61521995D01*
X114554485Y-61490000D01*
X114631727Y-61458005D01*
X114860535Y-61305120D01*
X115055120Y-61110535D01*
X115208005Y-60881727D01*
X115313314Y-60627490D01*
X115367000Y-60357592D01*
X115367000Y-60082408D01*
X115313314Y-59812510D01*
X115208005Y-59558273D01*
X115055120Y-59329465D01*
X114860535Y-59134880D01*
X114631727Y-58981995D01*
X114377490Y-58876686D01*
X114107592Y-58823000D01*
X113832408Y-58823000D01*
X113562510Y-58876686D01*
X113308273Y-58981995D01*
X113079465Y-59134880D01*
X112884880Y-59329465D01*
X112731995Y-59558273D01*
X112626686Y-59812510D01*
X112573000Y-60082408D01*
X87427000Y-60082408D01*
X87373314Y-59812510D01*
X87268005Y-59558273D01*
X87115120Y-59329465D01*
X86920535Y-59134880D01*
X86691727Y-58981995D01*
X86437490Y-58876686D01*
X86167592Y-58823000D01*
X85892408Y-58823000D01*
X85622510Y-58876686D01*
X85368273Y-58981995D01*
X85139465Y-59134880D01*
X84944880Y-59329465D01*
X84791995Y-59558273D01*
X84686686Y-59812510D01*
X84633000Y-60082408D01*
X76660000Y-60082408D01*
X76660000Y-46500000D01*
X108357815Y-46500000D01*
X108386487Y-46791111D01*
X108471401Y-47071034D01*
X108609294Y-47329014D01*
X108794866Y-47555134D01*
X108858337Y-47607223D01*
X108756614Y-47661595D01*
X108622038Y-47772038D01*
X108511595Y-47906614D01*
X108429528Y-48060150D01*
X108378992Y-48226746D01*
X108361928Y-48400000D01*
X108361928Y-49600000D01*
X108378992Y-49773254D01*
X108429528Y-49939850D01*
X108511595Y-50093386D01*
X108622038Y-50227962D01*
X108756614Y-50338405D01*
X108910150Y-50420472D01*
X109076746Y-50471008D01*
X109250000Y-50488072D01*
X110750000Y-50488072D01*
X110923254Y-50471008D01*
X111089850Y-50420472D01*
X111243386Y-50338405D01*
X111377962Y-50227962D01*
X111488405Y-50093386D01*
X111570472Y-49939850D01*
X111621008Y-49773254D01*
X111638072Y-49600000D01*
X111638072Y-48400000D01*
X111621008Y-48226746D01*
X111570472Y-48060150D01*
X111488405Y-47906614D01*
X111377962Y-47772038D01*
X111243386Y-47661595D01*
X111141663Y-47607223D01*
X111205134Y-47555134D01*
X111390706Y-47329014D01*
X111528599Y-47071034D01*
X111613513Y-46791111D01*
X111642185Y-46500000D01*
X111613513Y-46208889D01*
X111528599Y-45928966D01*
X111390706Y-45670986D01*
X111205134Y-45444866D01*
X110979014Y-45259294D01*
X110721034Y-45121401D01*
X110441111Y-45036487D01*
X110222950Y-45015000D01*
X109777050Y-45015000D01*
X109558889Y-45036487D01*
X109278966Y-45121401D01*
X109020986Y-45259294D01*
X108794866Y-45444866D01*
X108609294Y-45670986D01*
X108471401Y-45928966D01*
X108386487Y-46208889D01*
X108357815Y-46500000D01*
X76660000Y-46500000D01*
X76660000Y-40858665D01*
X105565000Y-40858665D01*
X105565000Y-41141335D01*
X105620147Y-41418574D01*
X105728320Y-41679727D01*
X105885363Y-41914759D01*
X106085241Y-42114637D01*
X106320273Y-42271680D01*
X106581426Y-42379853D01*
X106858665Y-42435000D01*
X107141335Y-42435000D01*
X107418574Y-42379853D01*
X107679727Y-42271680D01*
X107914759Y-42114637D01*
X108114637Y-41914759D01*
X108271680Y-41679727D01*
X108379853Y-41418574D01*
X108435000Y-41141335D01*
X108435000Y-41000000D01*
X115718057Y-41000000D01*
X115745764Y-41281309D01*
X115827818Y-41551808D01*
X115961068Y-41801101D01*
X116140392Y-42019608D01*
X116358899Y-42198932D01*
X116608192Y-42332182D01*
X116878691Y-42414236D01*
X117089508Y-42435000D01*
X117230492Y-42435000D01*
X117441309Y-42414236D01*
X117711808Y-42332182D01*
X117961101Y-42198932D01*
X118179608Y-42019608D01*
X118358932Y-41801101D01*
X118492182Y-41551808D01*
X118574236Y-41281309D01*
X118601943Y-41000000D01*
X118574236Y-40718691D01*
X118492182Y-40448192D01*
X118358932Y-40198899D01*
X118179608Y-39980392D01*
X117961101Y-39801068D01*
X117711808Y-39667818D01*
X117441309Y-39585764D01*
X117230492Y-39565000D01*
X117089508Y-39565000D01*
X116878691Y-39585764D01*
X116608192Y-39667818D01*
X116358899Y-39801068D01*
X116140392Y-39980392D01*
X115961068Y-40198899D01*
X115827818Y-40448192D01*
X115745764Y-40718691D01*
X115718057Y-41000000D01*
X108435000Y-41000000D01*
X108435000Y-40858665D01*
X108379853Y-40581426D01*
X108271680Y-40320273D01*
X108114637Y-40085241D01*
X107914759Y-39885363D01*
X107679727Y-39728320D01*
X107418574Y-39620147D01*
X107141335Y-39565000D01*
X106858665Y-39565000D01*
X106581426Y-39620147D01*
X106320273Y-39728320D01*
X106085241Y-39885363D01*
X105885363Y-40085241D01*
X105728320Y-40320273D01*
X105620147Y-40581426D01*
X105565000Y-40858665D01*
X76660000Y-40858665D01*
X76660000Y-35359267D01*
X87533680Y-35359267D01*
X87607558Y-35640830D01*
X87734947Y-35902570D01*
X87910951Y-36134429D01*
X88128807Y-36327496D01*
X88380142Y-36474352D01*
X88643110Y-36566476D01*
X88873000Y-36445155D01*
X88873000Y-35127000D01*
X87673835Y-35127000D01*
X87533680Y-35359267D01*
X76660000Y-35359267D01*
X76660000Y-34640733D01*
X87533680Y-34640733D01*
X87673835Y-34873000D01*
X88873000Y-34873000D01*
X88873000Y-33554845D01*
X89127000Y-33554845D01*
X89127000Y-34873000D01*
X89147000Y-34873000D01*
X89147000Y-35127000D01*
X89127000Y-35127000D01*
X89127000Y-36445155D01*
X89356890Y-36566476D01*
X89619858Y-36474352D01*
X89871193Y-36327496D01*
X90089049Y-36134429D01*
X90245538Y-35928278D01*
X90259294Y-35954013D01*
X90444866Y-36180134D01*
X90670986Y-36365706D01*
X90928966Y-36503599D01*
X91208889Y-36588513D01*
X91500000Y-36617185D01*
X91791110Y-36588513D01*
X92071033Y-36503599D01*
X92329013Y-36365706D01*
X92555134Y-36180134D01*
X92607223Y-36116663D01*
X92661595Y-36218386D01*
X92772038Y-36352962D01*
X92906614Y-36463405D01*
X93060150Y-36545472D01*
X93226746Y-36596008D01*
X93400000Y-36613072D01*
X94600000Y-36613072D01*
X94773254Y-36596008D01*
X94939850Y-36545472D01*
X95093386Y-36463405D01*
X95227962Y-36352962D01*
X95338405Y-36218386D01*
X95420472Y-36064850D01*
X95471008Y-35898254D01*
X95488072Y-35725000D01*
X95488072Y-35359267D01*
X105533680Y-35359267D01*
X105607558Y-35640830D01*
X105734947Y-35902570D01*
X105910951Y-36134429D01*
X106128807Y-36327496D01*
X106380142Y-36474352D01*
X106643110Y-36566476D01*
X106873000Y-36445155D01*
X106873000Y-35127000D01*
X105673835Y-35127000D01*
X105533680Y-35359267D01*
X95488072Y-35359267D01*
X95488072Y-34640733D01*
X105533680Y-34640733D01*
X105673835Y-34873000D01*
X106873000Y-34873000D01*
X106873000Y-33554845D01*
X107127000Y-33554845D01*
X107127000Y-34873000D01*
X107147000Y-34873000D01*
X107147000Y-35127000D01*
X107127000Y-35127000D01*
X107127000Y-36445155D01*
X107356890Y-36566476D01*
X107619858Y-36474352D01*
X107871193Y-36327496D01*
X108089049Y-36134429D01*
X108245538Y-35928278D01*
X108259294Y-35954013D01*
X108444866Y-36180134D01*
X108670986Y-36365706D01*
X108928966Y-36503599D01*
X109208889Y-36588513D01*
X109500000Y-36617185D01*
X109791110Y-36588513D01*
X110071033Y-36503599D01*
X110329013Y-36365706D01*
X110555134Y-36180134D01*
X110607223Y-36116663D01*
X110661595Y-36218386D01*
X110772038Y-36352962D01*
X110906614Y-36463405D01*
X111060150Y-36545472D01*
X111226746Y-36596008D01*
X111400000Y-36613072D01*
X112600000Y-36613072D01*
X112773254Y-36596008D01*
X112939850Y-36545472D01*
X113093386Y-36463405D01*
X113227962Y-36352962D01*
X113338405Y-36218386D01*
X113420472Y-36064850D01*
X113471008Y-35898254D01*
X113488072Y-35725000D01*
X113488072Y-34275000D01*
X113471008Y-34101746D01*
X113420472Y-33935150D01*
X113338405Y-33781614D01*
X113227962Y-33647038D01*
X113093386Y-33536595D01*
X112939850Y-33454528D01*
X112773254Y-33403992D01*
X112600000Y-33386928D01*
X111400000Y-33386928D01*
X111226746Y-33403992D01*
X111060150Y-33454528D01*
X110906614Y-33536595D01*
X110772038Y-33647038D01*
X110661595Y-33781614D01*
X110607223Y-33883337D01*
X110555134Y-33819866D01*
X110329014Y-33634294D01*
X110071034Y-33496401D01*
X109791111Y-33411487D01*
X109500000Y-33382815D01*
X109208890Y-33411487D01*
X108928967Y-33496401D01*
X108670987Y-33634294D01*
X108444866Y-33819866D01*
X108259294Y-34045986D01*
X108245538Y-34071722D01*
X108089049Y-33865571D01*
X107871193Y-33672504D01*
X107619858Y-33525648D01*
X107356890Y-33433524D01*
X107127000Y-33554845D01*
X106873000Y-33554845D01*
X106643110Y-33433524D01*
X106380142Y-33525648D01*
X106128807Y-33672504D01*
X105910951Y-33865571D01*
X105734947Y-34097430D01*
X105607558Y-34359170D01*
X105533680Y-34640733D01*
X95488072Y-34640733D01*
X95488072Y-34275000D01*
X95471008Y-34101746D01*
X95420472Y-33935150D01*
X95338405Y-33781614D01*
X95227962Y-33647038D01*
X95093386Y-33536595D01*
X94939850Y-33454528D01*
X94773254Y-33403992D01*
X94600000Y-33386928D01*
X93400000Y-33386928D01*
X93226746Y-33403992D01*
X93060150Y-33454528D01*
X92906614Y-33536595D01*
X92772038Y-33647038D01*
X92661595Y-33781614D01*
X92607223Y-33883337D01*
X92555134Y-33819866D01*
X92329014Y-33634294D01*
X92071034Y-33496401D01*
X91791111Y-33411487D01*
X91500000Y-33382815D01*
X91208890Y-33411487D01*
X90928967Y-33496401D01*
X90670987Y-33634294D01*
X90444866Y-33819866D01*
X90259294Y-34045986D01*
X90245538Y-34071722D01*
X90089049Y-33865571D01*
X89871193Y-33672504D01*
X89619858Y-33525648D01*
X89356890Y-33433524D01*
X89127000Y-33554845D01*
X88873000Y-33554845D01*
X88643110Y-33433524D01*
X88380142Y-33525648D01*
X88128807Y-33672504D01*
X87910951Y-33865571D01*
X87734947Y-34097430D01*
X87607558Y-34359170D01*
X87533680Y-34640733D01*
X76660000Y-34640733D01*
X76660000Y-30376403D01*
X76874061Y-30590464D01*
X77420285Y-30955439D01*
X78027216Y-31206838D01*
X78671531Y-31335000D01*
X79328469Y-31335000D01*
X79972784Y-31206838D01*
X80579715Y-30955439D01*
X81125939Y-30590464D01*
X81590464Y-30125939D01*
X81955439Y-29579715D01*
X82206838Y-28972784D01*
X82335000Y-28328469D01*
X82335000Y-27671531D01*
X82206838Y-27027216D01*
X81955439Y-26420285D01*
X81590464Y-25874061D01*
X81376403Y-25660000D01*
X117623597Y-25660000D01*
X117409536Y-25874061D01*
M02*
