M48
; DRILL file {KiCad (5.1.4)-1} date Sun 03/06/2022 11:24:11 PM
; FORMAT={-:-/ absolute / metric / decimal}
; #@! TF.CreationDate,2022-03-06T23:24:11-05:00
; #@! TF.GenerationSoftware,Kicad,Pcbnew,(5.1.4)-1
; #@! TF.FileFunction,Plated,1,2,PTH
FMAT,2
METRIC
T1C0.762
T2C0.800
T3C0.950
T4C1.000
T5C1.400
T6C2.700
%
G90
G05
T1
X86.03Y-60.22
X86.03Y-62.76
X86.03Y-65.3
X86.03Y-67.84
X86.03Y-70.38
X86.03Y-72.92
X86.03Y-75.46
X86.03Y-78.0
X86.03Y-80.54
X86.03Y-83.08
X86.03Y-85.62
X86.03Y-88.16
X86.03Y-90.7
X86.03Y-93.24
X86.03Y-95.78
X113.97Y-60.22
X113.97Y-62.76
X113.97Y-65.3
X113.97Y-67.84
X113.97Y-70.38
X113.97Y-72.92
X113.97Y-75.46
X113.97Y-78.0
X113.97Y-80.54
X113.97Y-83.08
X113.97Y-85.62
X113.97Y-88.16
X113.97Y-90.7
X113.97Y-93.24
X113.97Y-95.78
T2
X80.0Y-85.84
X80.0Y-96.0
X107.0Y-41.0
X117.16Y-41.0
X117.0Y-105.0
X122.0Y-105.0
X119.0Y-63.0
X119.0Y-73.16
T3
X89.0Y-35.0
X91.5Y-35.0
X94.0Y-35.0
X107.0Y-35.0
X109.5Y-35.0
X112.0Y-35.0
T4
X86.0Y-110.0
X88.5Y-110.0
X110.0Y-46.5
X110.0Y-49.0
T5
X105.0Y-109.0
X110.08Y-109.0
T6
X79.0Y-116.0
X120.0Y-116.0
X120.0Y-28.0
X79.0Y-28.0
T0
M30
