G04 #@! TF.GenerationSoftware,KiCad,Pcbnew,(5.1.4)-1*
G04 #@! TF.CreationDate,2022-03-06T23:24:09-05:00*
G04 #@! TF.ProjectId,wifi_remote_leds,77696669-5f72-4656-9d6f-74655f6c6564,rev?*
G04 #@! TF.SameCoordinates,Original*
G04 #@! TF.FileFunction,Copper,L1,Top*
G04 #@! TF.FilePolarity,Positive*
%FSLAX46Y46*%
G04 Gerber Fmt 4.6, Leading zero omitted, Abs format (unit mm)*
G04 Created by KiCad (PCBNEW (5.1.4)-1) date 2022-03-06 23:24:09*
%MOMM*%
%LPD*%
G04 APERTURE LIST*
%ADD10O,2.080000X3.600000*%
%ADD11C,0.100000*%
%ADD12C,2.080000*%
%ADD13C,1.524000*%
%ADD14O,2.000000X1.700000*%
%ADD15C,1.700000*%
%ADD16O,1.700000X2.000000*%
%ADD17O,1.600000X1.600000*%
%ADD18C,1.600000*%
%ADD19O,1.700000X1.950000*%
%ADD20C,5.400000*%
%ADD21R,1.600000X1.600000*%
%ADD22C,1.000000*%
%ADD23C,0.500000*%
G04 APERTURE END LIST*
D10*
X110080000Y-109000000D03*
D11*
G36*
X105814505Y-107201204D02*
G01*
X105838773Y-107204804D01*
X105862572Y-107210765D01*
X105885671Y-107219030D01*
X105907850Y-107229520D01*
X105928893Y-107242132D01*
X105948599Y-107256747D01*
X105966777Y-107273223D01*
X105983253Y-107291401D01*
X105997868Y-107311107D01*
X106010480Y-107332150D01*
X106020970Y-107354329D01*
X106029235Y-107377428D01*
X106035196Y-107401227D01*
X106038796Y-107425495D01*
X106040000Y-107449999D01*
X106040000Y-110550001D01*
X106038796Y-110574505D01*
X106035196Y-110598773D01*
X106029235Y-110622572D01*
X106020970Y-110645671D01*
X106010480Y-110667850D01*
X105997868Y-110688893D01*
X105983253Y-110708599D01*
X105966777Y-110726777D01*
X105948599Y-110743253D01*
X105928893Y-110757868D01*
X105907850Y-110770480D01*
X105885671Y-110780970D01*
X105862572Y-110789235D01*
X105838773Y-110795196D01*
X105814505Y-110798796D01*
X105790001Y-110800000D01*
X104209999Y-110800000D01*
X104185495Y-110798796D01*
X104161227Y-110795196D01*
X104137428Y-110789235D01*
X104114329Y-110780970D01*
X104092150Y-110770480D01*
X104071107Y-110757868D01*
X104051401Y-110743253D01*
X104033223Y-110726777D01*
X104016747Y-110708599D01*
X104002132Y-110688893D01*
X103989520Y-110667850D01*
X103979030Y-110645671D01*
X103970765Y-110622572D01*
X103964804Y-110598773D01*
X103961204Y-110574505D01*
X103960000Y-110550001D01*
X103960000Y-107449999D01*
X103961204Y-107425495D01*
X103964804Y-107401227D01*
X103970765Y-107377428D01*
X103979030Y-107354329D01*
X103989520Y-107332150D01*
X104002132Y-107311107D01*
X104016747Y-107291401D01*
X104033223Y-107273223D01*
X104051401Y-107256747D01*
X104071107Y-107242132D01*
X104092150Y-107229520D01*
X104114329Y-107219030D01*
X104137428Y-107210765D01*
X104161227Y-107204804D01*
X104185495Y-107201204D01*
X104209999Y-107200000D01*
X105790001Y-107200000D01*
X105814505Y-107201204D01*
X105814505Y-107201204D01*
G37*
D12*
X105000000Y-109000000D03*
D13*
X113970000Y-60220000D03*
X113970000Y-62760000D03*
X113970000Y-65300000D03*
X113970000Y-67840000D03*
X113970000Y-70380000D03*
X113970000Y-72920000D03*
X113970000Y-75460000D03*
X113970000Y-78000000D03*
X113970000Y-80540000D03*
X113970000Y-83080000D03*
X113970000Y-85620000D03*
X113970000Y-88160000D03*
X113970000Y-90700000D03*
X113970000Y-93240000D03*
X113970000Y-95780000D03*
X86030000Y-95780000D03*
X86030000Y-93240000D03*
X86030000Y-90700000D03*
X86030000Y-88160000D03*
X86030000Y-85620000D03*
X86030000Y-83080000D03*
X86030000Y-80540000D03*
X86030000Y-78000000D03*
X86030000Y-75460000D03*
X86030000Y-72920000D03*
X86030000Y-70380000D03*
X86030000Y-67840000D03*
X86030000Y-65300000D03*
X86030000Y-62760000D03*
X86030000Y-60220000D03*
D14*
X110000000Y-46500000D03*
D11*
G36*
X110774504Y-48151204D02*
G01*
X110798773Y-48154804D01*
X110822571Y-48160765D01*
X110845671Y-48169030D01*
X110867849Y-48179520D01*
X110888893Y-48192133D01*
X110908598Y-48206747D01*
X110926777Y-48223223D01*
X110943253Y-48241402D01*
X110957867Y-48261107D01*
X110970480Y-48282151D01*
X110980970Y-48304329D01*
X110989235Y-48327429D01*
X110995196Y-48351227D01*
X110998796Y-48375496D01*
X111000000Y-48400000D01*
X111000000Y-49600000D01*
X110998796Y-49624504D01*
X110995196Y-49648773D01*
X110989235Y-49672571D01*
X110980970Y-49695671D01*
X110970480Y-49717849D01*
X110957867Y-49738893D01*
X110943253Y-49758598D01*
X110926777Y-49776777D01*
X110908598Y-49793253D01*
X110888893Y-49807867D01*
X110867849Y-49820480D01*
X110845671Y-49830970D01*
X110822571Y-49839235D01*
X110798773Y-49845196D01*
X110774504Y-49848796D01*
X110750000Y-49850000D01*
X109250000Y-49850000D01*
X109225496Y-49848796D01*
X109201227Y-49845196D01*
X109177429Y-49839235D01*
X109154329Y-49830970D01*
X109132151Y-49820480D01*
X109111107Y-49807867D01*
X109091402Y-49793253D01*
X109073223Y-49776777D01*
X109056747Y-49758598D01*
X109042133Y-49738893D01*
X109029520Y-49717849D01*
X109019030Y-49695671D01*
X109010765Y-49672571D01*
X109004804Y-49648773D01*
X109001204Y-49624504D01*
X109000000Y-49600000D01*
X109000000Y-48400000D01*
X109001204Y-48375496D01*
X109004804Y-48351227D01*
X109010765Y-48327429D01*
X109019030Y-48304329D01*
X109029520Y-48282151D01*
X109042133Y-48261107D01*
X109056747Y-48241402D01*
X109073223Y-48223223D01*
X109091402Y-48206747D01*
X109111107Y-48192133D01*
X109132151Y-48179520D01*
X109154329Y-48169030D01*
X109177429Y-48160765D01*
X109201227Y-48154804D01*
X109225496Y-48151204D01*
X109250000Y-48150000D01*
X110750000Y-48150000D01*
X110774504Y-48151204D01*
X110774504Y-48151204D01*
G37*
D15*
X110000000Y-49000000D03*
D16*
X88500000Y-110000000D03*
D11*
G36*
X86624504Y-109001204D02*
G01*
X86648773Y-109004804D01*
X86672571Y-109010765D01*
X86695671Y-109019030D01*
X86717849Y-109029520D01*
X86738893Y-109042133D01*
X86758598Y-109056747D01*
X86776777Y-109073223D01*
X86793253Y-109091402D01*
X86807867Y-109111107D01*
X86820480Y-109132151D01*
X86830970Y-109154329D01*
X86839235Y-109177429D01*
X86845196Y-109201227D01*
X86848796Y-109225496D01*
X86850000Y-109250000D01*
X86850000Y-110750000D01*
X86848796Y-110774504D01*
X86845196Y-110798773D01*
X86839235Y-110822571D01*
X86830970Y-110845671D01*
X86820480Y-110867849D01*
X86807867Y-110888893D01*
X86793253Y-110908598D01*
X86776777Y-110926777D01*
X86758598Y-110943253D01*
X86738893Y-110957867D01*
X86717849Y-110970480D01*
X86695671Y-110980970D01*
X86672571Y-110989235D01*
X86648773Y-110995196D01*
X86624504Y-110998796D01*
X86600000Y-111000000D01*
X85400000Y-111000000D01*
X85375496Y-110998796D01*
X85351227Y-110995196D01*
X85327429Y-110989235D01*
X85304329Y-110980970D01*
X85282151Y-110970480D01*
X85261107Y-110957867D01*
X85241402Y-110943253D01*
X85223223Y-110926777D01*
X85206747Y-110908598D01*
X85192133Y-110888893D01*
X85179520Y-110867849D01*
X85169030Y-110845671D01*
X85160765Y-110822571D01*
X85154804Y-110798773D01*
X85151204Y-110774504D01*
X85150000Y-110750000D01*
X85150000Y-109250000D01*
X85151204Y-109225496D01*
X85154804Y-109201227D01*
X85160765Y-109177429D01*
X85169030Y-109154329D01*
X85179520Y-109132151D01*
X85192133Y-109111107D01*
X85206747Y-109091402D01*
X85223223Y-109073223D01*
X85241402Y-109056747D01*
X85261107Y-109042133D01*
X85282151Y-109029520D01*
X85304329Y-109019030D01*
X85327429Y-109010765D01*
X85351227Y-109004804D01*
X85375496Y-109001204D01*
X85400000Y-109000000D01*
X86600000Y-109000000D01*
X86624504Y-109001204D01*
X86624504Y-109001204D01*
G37*
D15*
X86000000Y-110000000D03*
D17*
X117160000Y-41000000D03*
D18*
X107000000Y-41000000D03*
D17*
X119000000Y-73160000D03*
D18*
X119000000Y-63000000D03*
D17*
X80000000Y-85840000D03*
D18*
X80000000Y-96000000D03*
D19*
X107000000Y-35000000D03*
X109500000Y-35000000D03*
D11*
G36*
X112624504Y-34026204D02*
G01*
X112648773Y-34029804D01*
X112672571Y-34035765D01*
X112695671Y-34044030D01*
X112717849Y-34054520D01*
X112738893Y-34067133D01*
X112758598Y-34081747D01*
X112776777Y-34098223D01*
X112793253Y-34116402D01*
X112807867Y-34136107D01*
X112820480Y-34157151D01*
X112830970Y-34179329D01*
X112839235Y-34202429D01*
X112845196Y-34226227D01*
X112848796Y-34250496D01*
X112850000Y-34275000D01*
X112850000Y-35725000D01*
X112848796Y-35749504D01*
X112845196Y-35773773D01*
X112839235Y-35797571D01*
X112830970Y-35820671D01*
X112820480Y-35842849D01*
X112807867Y-35863893D01*
X112793253Y-35883598D01*
X112776777Y-35901777D01*
X112758598Y-35918253D01*
X112738893Y-35932867D01*
X112717849Y-35945480D01*
X112695671Y-35955970D01*
X112672571Y-35964235D01*
X112648773Y-35970196D01*
X112624504Y-35973796D01*
X112600000Y-35975000D01*
X111400000Y-35975000D01*
X111375496Y-35973796D01*
X111351227Y-35970196D01*
X111327429Y-35964235D01*
X111304329Y-35955970D01*
X111282151Y-35945480D01*
X111261107Y-35932867D01*
X111241402Y-35918253D01*
X111223223Y-35901777D01*
X111206747Y-35883598D01*
X111192133Y-35863893D01*
X111179520Y-35842849D01*
X111169030Y-35820671D01*
X111160765Y-35797571D01*
X111154804Y-35773773D01*
X111151204Y-35749504D01*
X111150000Y-35725000D01*
X111150000Y-34275000D01*
X111151204Y-34250496D01*
X111154804Y-34226227D01*
X111160765Y-34202429D01*
X111169030Y-34179329D01*
X111179520Y-34157151D01*
X111192133Y-34136107D01*
X111206747Y-34116402D01*
X111223223Y-34098223D01*
X111241402Y-34081747D01*
X111261107Y-34067133D01*
X111282151Y-34054520D01*
X111304329Y-34044030D01*
X111327429Y-34035765D01*
X111351227Y-34029804D01*
X111375496Y-34026204D01*
X111400000Y-34025000D01*
X112600000Y-34025000D01*
X112624504Y-34026204D01*
X112624504Y-34026204D01*
G37*
D15*
X112000000Y-35000000D03*
D19*
X89000000Y-35000000D03*
X91500000Y-35000000D03*
D11*
G36*
X94624504Y-34026204D02*
G01*
X94648773Y-34029804D01*
X94672571Y-34035765D01*
X94695671Y-34044030D01*
X94717849Y-34054520D01*
X94738893Y-34067133D01*
X94758598Y-34081747D01*
X94776777Y-34098223D01*
X94793253Y-34116402D01*
X94807867Y-34136107D01*
X94820480Y-34157151D01*
X94830970Y-34179329D01*
X94839235Y-34202429D01*
X94845196Y-34226227D01*
X94848796Y-34250496D01*
X94850000Y-34275000D01*
X94850000Y-35725000D01*
X94848796Y-35749504D01*
X94845196Y-35773773D01*
X94839235Y-35797571D01*
X94830970Y-35820671D01*
X94820480Y-35842849D01*
X94807867Y-35863893D01*
X94793253Y-35883598D01*
X94776777Y-35901777D01*
X94758598Y-35918253D01*
X94738893Y-35932867D01*
X94717849Y-35945480D01*
X94695671Y-35955970D01*
X94672571Y-35964235D01*
X94648773Y-35970196D01*
X94624504Y-35973796D01*
X94600000Y-35975000D01*
X93400000Y-35975000D01*
X93375496Y-35973796D01*
X93351227Y-35970196D01*
X93327429Y-35964235D01*
X93304329Y-35955970D01*
X93282151Y-35945480D01*
X93261107Y-35932867D01*
X93241402Y-35918253D01*
X93223223Y-35901777D01*
X93206747Y-35883598D01*
X93192133Y-35863893D01*
X93179520Y-35842849D01*
X93169030Y-35820671D01*
X93160765Y-35797571D01*
X93154804Y-35773773D01*
X93151204Y-35749504D01*
X93150000Y-35725000D01*
X93150000Y-34275000D01*
X93151204Y-34250496D01*
X93154804Y-34226227D01*
X93160765Y-34202429D01*
X93169030Y-34179329D01*
X93179520Y-34157151D01*
X93192133Y-34136107D01*
X93206747Y-34116402D01*
X93223223Y-34098223D01*
X93241402Y-34081747D01*
X93261107Y-34067133D01*
X93282151Y-34054520D01*
X93304329Y-34044030D01*
X93327429Y-34035765D01*
X93351227Y-34029804D01*
X93375496Y-34026204D01*
X93400000Y-34025000D01*
X94600000Y-34025000D01*
X94624504Y-34026204D01*
X94624504Y-34026204D01*
G37*
D15*
X94000000Y-35000000D03*
D20*
X120000000Y-116000000D03*
X120000000Y-28000000D03*
X79000000Y-116000000D03*
X79000000Y-28000000D03*
D18*
X122000000Y-105000000D03*
D21*
X117000000Y-105000000D03*
D22*
X105000000Y-109000000D02*
X106000000Y-106000000D01*
X106000000Y-106000000D02*
X117000000Y-105000000D01*
X109500000Y-35000000D02*
X110000000Y-43000000D01*
X110000000Y-43000000D02*
X116000000Y-46000000D01*
X116000000Y-46000000D02*
X120000000Y-54000000D01*
X120000000Y-54000000D02*
X123000000Y-61000000D01*
X123000000Y-61000000D02*
X123000000Y-91000000D01*
X123000000Y-91000000D02*
X117000000Y-105000000D01*
X105000000Y-109000000D02*
X87000000Y-114000000D01*
X87000000Y-114000000D02*
X82000000Y-112000000D01*
X82000000Y-112000000D02*
X86000000Y-96000000D01*
X88500000Y-110000000D02*
X114000000Y-96000000D01*
X91500000Y-35000000D02*
X94000000Y-41000000D01*
X94000000Y-41000000D02*
X110000000Y-47000000D01*
X110000000Y-46500000D02*
X114000000Y-47000000D01*
X114000000Y-47000000D02*
X115000000Y-52000000D01*
X115000000Y-52000000D02*
X121000000Y-60000000D01*
X121000000Y-60000000D02*
X121000000Y-90000000D01*
X121000000Y-90000000D02*
X114000000Y-96000000D01*
D23*
X87699990Y-34336519D02*
X87699990Y-36699990D01*
X88461519Y-33574990D02*
X87699990Y-34336519D01*
X94000000Y-35000000D02*
X92574990Y-33574990D01*
X92574990Y-33574990D02*
X88461519Y-33574990D01*
X87699990Y-36699990D02*
X102000000Y-51000000D01*
X102000000Y-51000000D02*
X105000000Y-51000000D01*
X112757999Y-58757999D02*
X112757999Y-76757999D01*
X105000000Y-51000000D02*
X112757999Y-58757999D01*
X112757999Y-76757999D02*
X114000000Y-78000000D01*
X105699990Y-39699990D02*
X106200001Y-40200001D01*
X105699990Y-34336519D02*
X105699990Y-39699990D01*
X107036509Y-33000000D02*
X105699990Y-34336519D01*
X112000000Y-35000000D02*
X110000000Y-33000000D01*
X110000000Y-33000000D02*
X107036509Y-33000000D01*
X106200001Y-40200001D02*
X107000000Y-41000000D01*
X87242001Y-108757999D02*
X86905553Y-109094447D01*
X87242001Y-95198239D02*
X87242001Y-108757999D01*
X86495763Y-94452001D02*
X87242001Y-95198239D01*
X80000000Y-96000000D02*
X81547999Y-94452001D01*
X81547999Y-94452001D02*
X86495763Y-94452001D01*
X86905553Y-109094447D02*
X86000000Y-110000000D01*
X115182001Y-59182001D02*
X118200001Y-62200001D01*
X110000000Y-49000000D02*
X115182001Y-54182001D01*
X115182001Y-54182001D02*
X115182001Y-59182001D01*
X118200001Y-62200001D02*
X119000000Y-63000000D01*
X117000000Y-65000000D02*
X117000000Y-80000000D01*
X119000000Y-63000000D02*
X117000000Y-65000000D01*
X117000000Y-80000000D02*
X114000000Y-83000000D01*
X86999980Y-34046566D02*
X86999980Y-40999980D01*
X88746556Y-32299990D02*
X86999980Y-34046566D01*
X111614956Y-32299990D02*
X88746556Y-32299990D01*
X117160000Y-41000000D02*
X117160000Y-37845034D01*
X117160000Y-37845034D02*
X111614956Y-32299990D01*
X86999980Y-40999980D02*
X98000000Y-52000000D01*
X98000000Y-52000000D02*
X105000000Y-52000000D01*
X105000000Y-52000000D02*
X105000000Y-77000000D01*
X105000000Y-77000000D02*
X114000000Y-86000000D01*
M02*
